<svg version="1.1" viewBox="0.0 0.0 973.2808398950132 264.28871391076115" fill="none" stroke="none" stroke-linecap="square" stroke-miterlimit="10" xmlns:xlink="http://www.w3.org/1999/xlink" xmlns="http://www.w3.org/2000/svg"><clipPath id="p.0"><path d="m0 0l973.2808 0l0 264.28873l-973.2808 0l0 -264.28873z" clip-rule="nonzero"/></clipPath><g clip-path="url(#p.0)"><path fill="#000000" fill-opacity="0.0" d="m0 0l973.2808 0l0 264.28873l-973.2808 0z" fill-rule="evenodd"/><path fill="#f3f3f3" d="m17.805775 44.790768l0 0c0 -20.48568 16.606926 -37.092606 37.092606 -37.092606l863.4841 0c9.837585 0 19.272217 3.9079595 26.228455 10.864174c6.9561768 6.956213 10.864136 16.390862 10.864136 26.228432l0 148.36597c0 20.485687 -16.606873 37.092606 -37.09259 37.092606l-863.4841 0c-20.48568 0 -37.092606 -16.606918 -37.092606 -37.092606z" fill-rule="evenodd"/><path stroke="#000000" stroke-width="1.0" stroke-linejoin="round" stroke-linecap="butt" d="m17.805775 44.790768l0 0c0 -20.48568 16.606926 -37.092606 37.092606 -37.092606l863.4841 0c9.837585 0 19.272217 3.9079595 26.228455 10.864174c6.9561768 6.956213 10.864136 16.390862 10.864136 26.228432l0 148.36597c0 20.485687 -16.606873 37.092606 -37.09259 37.092606l-863.4841 0c-20.48568 0 -37.092606 -16.606918 -37.092606 -37.092606z" fill-rule="evenodd"/><path fill="#cfe2f3" d="m37.136482 110.26485l171.73776 0l0 72.032486c-85.86426 0 -85.86426 27.714462 -171.73776 13.8572235zm14.149086 0l0 -9.338562l170.56482 0l0 72.484344c-6.4834595 0 -12.9761505 0.5020752 -12.9761505 0.5020752l0 -63.647858zm13.2994 -9.338562l0 -9.112633l172.04254 0l0 72.258415c-7.38855 0 -14.777115 0.3765564 -14.777115 0.3765564l0 -63.52234z" fill-rule="evenodd"/><path fill="#000000" fill-opacity="0.0" d="m37.136482 110.26485l171.73776 0l0 72.032486c-85.86426 0 -85.86426 27.714462 -171.73776 13.8572235zm14.149086 0l0 -9.338562l170.56482 0l0 72.484344c-6.4834595 0 -12.9761505 0.5020752 -12.9761505 0.5020752m-144.28928 -72.98642l0 -9.112633l172.04254 0l0 72.258415c-7.38855 0 -14.777115 0.3765564 -14.777115 0.3765564" fill-rule="evenodd"/><path fill="#000000" fill-opacity="0.0" d="m37.136482 196.15456c85.8735 13.857239 85.8735 -13.8572235 171.73776 -13.8572235l0 -8.384628c0 0 6.492691 -0.5020752 12.9761505 -0.5020752l0 -8.962006c0 0 7.388565 -0.3765564 14.777115 -0.3765564l0 -72.258415l-172.04254 0l0 9.112633l-13.2994 0l0 9.338562l-14.149086 0z" fill-rule="evenodd"/><path stroke="#000000" stroke-width="1.0" stroke-linejoin="round" stroke-linecap="butt" d="m37.136482 110.26485l171.73776 0l0 72.032486c-85.86426 0 -85.86426 27.714462 -171.73776 13.8572235zm14.149086 0l0 -9.338562l170.56482 0l0 72.484344c-6.4834595 0 -12.9761505 0.5020752 -12.9761505 0.5020752m-144.28928 -72.98642l0 -9.112633l172.04254 0l0 72.258415c-7.38855 0 -14.777115 0.3765564 -14.777115 0.3765564" fill-rule="evenodd"/><path fill="#000000" d="m46.808357 157.7297l0 -7.46875l2.203125 0q0.890625 0 1.4375 0.265625q0.546875 0.25 0.796875 0.734375q0.25 0.484375 0.25 1.125q0 0.421875 -0.1875 0.84375q-0.1875 0.421875 -0.53125 0.734375q-0.328125 0.3125 -0.796875 0.421875l1.71875 3.34375l-0.9375 0l-1.65625 -3.296875l-1.4375 0l0 3.296875l-0.859375 0zm0.859375 -4.046875l1.4375 0q0.8125 0 1.171875 -0.34375q0.359375 -0.359375 0.359375 -0.953125q0 -0.375 -0.15625 -0.671875q-0.15625 -0.3125 -0.5 -0.484375q-0.328125 -0.1875 -0.875 -0.1875l-1.4375 0l0 2.640625zm7.734421 4.171875q-0.609375 0 -1.09375 -0.1875q-0.484375 -0.1875 -0.84375 -0.546875q-0.359375 -0.359375 -0.546875 -0.890625q-0.1875 -0.546875 -0.1875 -1.21875q0 -0.703125 0.1875 -1.234375q0.203125 -0.546875 0.546875 -0.90625q0.34375 -0.375 0.796875 -0.5625q0.46875 -0.1875 0.984375 -0.1875q0.46875 0 0.875 0.15625q0.40625 0.15625 0.703125 0.46875q0.296875 0.3125 0.46875 0.8125q0.1875 0.484375 0.1875 1.15625q0 0.09375 -0.015625 0.203125q0 0.09375 -0.015625 0.203125l-3.890625 0q0.015625 0.515625 0.171875 0.90625q0.15625 0.390625 0.40625 0.640625q0.25 0.25 0.578125 0.375q0.34375 0.109375 0.703125 0.109375q0.296875 0 0.546875 -0.0625q0.25 -0.0625 0.46875 -0.203125q0.234375 -0.140625 0.40625 -0.34375l0.484375 0.46875q-0.234375 0.28125 -0.53125 0.46875q-0.28125 0.1875 -0.640625 0.28125q-0.34375 0.09375 -0.75 0.09375zm-1.8125 -3.40625l3.015625 0q0 -0.390625 -0.109375 -0.6875q-0.09375 -0.3125 -0.28125 -0.53125q-0.1875 -0.234375 -0.453125 -0.34375q-0.25 -0.109375 -0.578125 -0.109375q-0.28125 0 -0.546875 0.09375q-0.25 0.09375 -0.46875 0.3125q-0.21875 0.203125 -0.375 0.515625q-0.140625 0.3125 -0.203125 0.75zm8.984421 5.28125l0 -2.875q-0.171875 0.296875 -0.4375 0.53125q-0.25 0.21875 -0.5625 0.34375q-0.3125 0.125 -0.671875 0.125q-0.46875 0 -0.890625 -0.203125q-0.40625 -0.21875 -0.71875 -0.59375q-0.296875 -0.390625 -0.484375 -0.90625q-0.171875 -0.53125 -0.171875 -1.1875q0 -0.671875 0.1875 -1.203125q0.203125 -0.53125 0.53125 -0.90625q0.328125 -0.375 0.765625 -0.5625q0.4375 -0.1875 0.9375 -0.1875q0.28125 0 0.515625 0.0625q0.25 0.0625 0.4375 0.1875q0.203125 0.125 0.34375 0.3125q0.15625 0.171875 0.265625 0.375l0 -0.796875l0.8125 0l0 7.484375l-0.859375 0zm-1.515625 -2.640625q0.3125 0 0.578125 -0.125q0.265625 -0.125 0.46875 -0.390625q0.21875 -0.265625 0.328125 -0.703125q0.125 -0.4375 0.125 -1.03125q0 -0.5625 -0.109375 -0.953125q-0.09375 -0.390625 -0.296875 -0.625q-0.1875 -0.234375 -0.4375 -0.34375q-0.25 -0.109375 -0.5625 -0.109375q-0.34375 0 -0.640625 0.125q-0.296875 0.125 -0.53125 0.390625q-0.21875 0.25 -0.34375 0.65625q-0.125 0.40625 -0.125 0.953125q0 0.5 0.109375 0.90625q0.109375 0.390625 0.3125 0.671875q0.203125 0.28125 0.484375 0.4375q0.28125 0.140625 0.640625 0.140625zm5.734421 0.765625q-0.328125 0 -0.625 -0.09375q-0.28125 -0.09375 -0.515625 -0.28125q-0.234375 -0.203125 -0.40625 -0.5q-0.15625 -0.3125 -0.25 -0.71875q-0.09375 -0.421875 -0.09375 -0.953125l0.015625 -3.0625l0.84375 0l0 3.0625q0 0.515625 0.09375 0.875q0.09375 0.359375 0.265625 0.578125q0.171875 0.21875 0.390625 0.3125q0.234375 0.09375 0.5 0.09375q0.28125 0 0.546875 -0.109375q0.265625 -0.125 0.46875 -0.34375q0.21875 -0.234375 0.328125 -0.59375q0.125 -0.359375 0.125 -0.84375l0 -3.03125l0.84375 0l0 4.625q0 0.21875 0.015625 0.4375q0.015625 0.203125 0.09375 0.421875l-0.828125 0q-0.046875 -0.140625 -0.078125 -0.28125q-0.015625 -0.140625 -0.03125 -0.28125q0 -0.140625 0 -0.28125q-0.140625 0.234375 -0.328125 0.421875q-0.171875 0.171875 -0.390625 0.296875q-0.21875 0.125 -0.46875 0.1875q-0.25 0.0625 -0.515625 0.0625zm6.609421 0q-0.609375 0 -1.09375 -0.1875q-0.484375 -0.1875 -0.84375 -0.546875q-0.359375 -0.359375 -0.546875 -0.890625q-0.1875 -0.546875 -0.1875 -1.21875q0 -0.703125 0.1875 -1.234375q0.203125 -0.546875 0.546875 -0.90625q0.34375 -0.375 0.796875 -0.5625q0.46875 -0.1875 0.984375 -0.1875q0.46875 0 0.875 0.15625q0.40625 0.15625 0.703125 0.46875q0.296875 0.3125 0.46875 0.8125q0.1875 0.484375 0.1875 1.15625q0 0.09375 -0.015625 0.203125q0 0.09375 -0.015625 0.203125l-3.890625 0q0.015625 0.515625 0.171875 0.90625q0.15625 0.390625 0.40625 0.640625q0.25 0.25 0.578125 0.375q0.34375 0.109375 0.703125 0.109375q0.296875 0 0.546875 -0.0625q0.25 -0.0625 0.46875 -0.203125q0.234375 -0.140625 0.40625 -0.34375l0.484375 0.46875q-0.234375 0.28125 -0.53125 0.46875q-0.28125 0.1875 -0.640625 0.28125q-0.34375 0.09375 -0.75 0.09375zm-1.8125 -3.40625l3.015625 0q0 -0.390625 -0.109375 -0.6875q-0.09375 -0.3125 -0.28125 -0.53125q-0.1875 -0.234375 -0.453125 -0.34375q-0.25 -0.109375 -0.578125 -0.109375q-0.28125 0 -0.546875 0.09375q-0.25 0.09375 -0.46875 0.3125q-0.21875 0.203125 -0.375 0.515625q-0.140625 0.3125 -0.203125 0.75zm7.562546 3.40625q-0.453125 0 -0.875 -0.109375q-0.40625 -0.09375 -0.78125 -0.28125q-0.359375 -0.1875 -0.671875 -0.484375l0.46875 -0.8125l0.078125 -0.109375l0.078125 0.046875q0.015625 0.09375 0.046875 0.203125q0.03125 0.109375 0.171875 0.25q0.25 0.25 0.59375 0.421875q0.359375 0.15625 0.90625 0.15625q0.453125 0 0.75 -0.109375q0.3125 -0.109375 0.46875 -0.3125q0.171875 -0.203125 0.171875 -0.453125q0 -0.1875 -0.078125 -0.328125q-0.0625 -0.140625 -0.234375 -0.25q-0.15625 -0.125 -0.421875 -0.234375q-0.25 -0.125 -0.640625 -0.25q-0.625 -0.1875 -1.09375 -0.421875q-0.46875 -0.234375 -0.71875 -0.546875q-0.25 -0.328125 -0.25 -0.734375q0 -0.421875 0.21875 -0.71875q0.234375 -0.3125 0.6875 -0.484375q0.453125 -0.171875 1.109375 -0.171875q0.390625 0 0.703125 0.046875q0.3125 0.046875 0.5625 0.15625q0.265625 0.109375 0.484375 0.28125q0.234375 0.15625 0.4375 0.375l-0.5 0.59375l-0.078125 0.09375l-0.0625 -0.046875q-0.015625 -0.109375 -0.0625 -0.1875q-0.03125 -0.09375 -0.171875 -0.234375q-0.265625 -0.203125 -0.625 -0.3125q-0.34375 -0.125 -0.65625 -0.125q-0.484375 0 -0.84375 0.171875q-0.34375 0.171875 -0.34375 0.515625q0 0.171875 0.125 0.359375q0.125 0.171875 0.453125 0.34375q0.34375 0.171875 0.96875 0.34375q0.6875 0.21875 1.09375 0.453125q0.421875 0.21875 0.609375 0.515625q0.1875 0.28125 0.1875 0.671875q0 0.453125 -0.25 0.859375q-0.25 0.390625 -0.75 0.625q-0.5 0.234375 -1.265625 0.234375l0 0zm6.578171 -0.046875q-0.53125 0 -0.875 -0.171875q-0.328125 -0.1875 -0.515625 -0.5625q-0.171875 -0.375 -0.234375 -0.953125q-0.046875 -0.578125 -0.03125 -1.359375l0.15625 -3.921875l0.890625 -0.109375l0.125 -0.015625l0.015625 0.09375q-0.0625 0.078125 -0.109375 0.171875q-0.046875 0.078125 -0.0625 0.28125l-0.109375 1.359375l0.03125 0.21875l-0.078125 1.96875q-0.03125 0.921875 0.046875 1.421875q0.078125 0.484375 0.296875 0.671875q0.21875 0.1875 0.578125 0.1875q0.390625 0 0.703125 -0.15625q0.3125 -0.15625 0.640625 -0.390625l0.265625 0.6875q-0.40625 0.296875 -0.84375 0.4375q-0.421875 0.140625 -0.890625 0.140625l0 0zm-2.75 -5.5625l3.9375 0l0 0.703125l-3.9375 0l0 -0.703125zm5.750046 -1.984375l0.875 0l0.109375 0l0 0.078125q-0.0625 0.078125 -0.09375 0.15625q-0.015625 0.078125 -0.015625 0.28125l0 2.671875l2.9375 0l0 -3.1875l0.859375 0l0.125 0l0 0.078125q-0.078125 0.078125 -0.09375 0.15625q-0.015625 0.078125 -0.015625 0.28125l0 6.953125l-0.890625 0l0 -3.5625l-2.921875 0l0 3.5625l-0.875 0l0 -7.46875zm7.937546 7.59375q-0.9375 0 -1.4375 -0.421875q-0.5 -0.421875 -0.5 -1.078125q0 -0.453125 0.203125 -0.796875q0.21875 -0.359375 0.59375 -0.609375q0.390625 -0.25 0.890625 -0.375q0.5 -0.125 1.0625 -0.125q0.203125 0 0.40625 0q0.21875 0 0.453125 0.03125q0.234375 0.015625 0.484375 0.046875l0.03125 0.65625q-0.21875 -0.03125 -0.4375 -0.046875q-0.21875 -0.015625 -0.4375 -0.03125q-0.21875 -0.015625 -0.421875 -0.015625q-0.4375 0 -0.796875 0.078125q-0.359375 0.0625 -0.625 0.21875q-0.265625 0.140625 -0.40625 0.375q-0.140625 0.21875 -0.140625 0.546875q0 0.25 0.078125 0.421875q0.09375 0.171875 0.25 0.28125q0.15625 0.09375 0.359375 0.140625q0.21875 0.046875 0.46875 0.046875q0.46875 0 0.828125 -0.140625q0.375 -0.15625 0.625 -0.4375q0.265625 -0.296875 0.390625 -0.71875q0.140625 -0.421875 0.140625 -0.953125q0 -0.8125 -0.1875 -1.265625q-0.1875 -0.46875 -0.578125 -0.65625q-0.375 -0.1875 -0.953125 -0.1875q-0.40625 0 -0.796875 0.15625q-0.375 0.140625 -0.6875 0.453125l-0.421875 -0.5625q0.390625 -0.375 0.890625 -0.5625q0.5 -0.203125 1.0625 -0.203125q0.546875 0 0.984375 0.140625q0.453125 0.125 0.765625 0.4375q0.3125 0.296875 0.484375 0.8125q0.1875 0.515625 0.1875 1.296875l0 2.921875l-0.9375 0l0 -0.84375q-0.15625 0.296875 -0.390625 0.5q-0.21875 0.1875 -0.46875 0.296875q-0.25 0.09375 -0.515625 0.125q-0.265625 0.046875 -0.5 0.046875zm4.328171 -0.125l0 -5.484375l0.84375 0l0 0.96875q0.21875 -0.328125 0.5 -0.578125q0.296875 -0.25 0.640625 -0.375q0.34375 -0.140625 0.71875 -0.140625q0.453125 0 0.8125 0.234375q0.359375 0.21875 0.578125 0.71875q0.21875 0.5 0.21875 1.328125l0 3.328125l-0.84375 0l0 -3.296875q0 -0.578125 -0.140625 -0.921875q-0.125 -0.34375 -0.359375 -0.484375q-0.21875 -0.15625 -0.5 -0.15625q-0.28125 0 -0.5625 0.125q-0.28125 0.109375 -0.53125 0.34375q-0.234375 0.21875 -0.390625 0.53125q-0.140625 0.3125 -0.140625 0.703125l0 3.15625l-0.84375 0zm7.953171 0.125q-0.421875 0 -0.828125 -0.171875q-0.40625 -0.1875 -0.734375 -0.546875q-0.328125 -0.359375 -0.515625 -0.90625q-0.1875 -0.5625 -0.1875 -1.296875q0 -0.75 0.203125 -1.28125q0.203125 -0.546875 0.53125 -0.875q0.34375 -0.34375 0.75 -0.5q0.40625 -0.171875 0.828125 -0.171875q0.375 0 0.6875 0.125q0.3125 0.109375 0.53125 0.328125q0.234375 0.203125 0.375 0.484375l0 -3.296875l0.796875 0l0.109375 0l0 0.09375q-0.0625 0.0625 -0.09375 0.15625q-0.015625 0.078125 -0.015625 0.28125l0.015625 6.59375q0 0.21875 0.015625 0.4375q0.015625 0.203125 0.109375 0.421875l-0.859375 0q-0.0625 -0.140625 -0.09375 -0.28125q-0.015625 -0.15625 -0.015625 -0.28125q0 -0.140625 0 -0.296875q-0.171875 0.296875 -0.421875 0.515625q-0.234375 0.21875 -0.53125 0.34375q-0.296875 0.125 -0.65625 0.125l0 0zm0.125 -0.765625q0.40625 0 0.671875 -0.15625q0.28125 -0.15625 0.4375 -0.453125q0.171875 -0.296875 0.25 -0.6875q0.078125 -0.390625 0.078125 -0.828125q0 -0.625 -0.15625 -1.109375q-0.15625 -0.484375 -0.5 -0.765625q-0.328125 -0.28125 -0.84375 -0.28125q-0.359375 0 -0.65625 0.140625q-0.28125 0.140625 -0.46875 0.40625q-0.171875 0.265625 -0.28125 0.625q-0.09375 0.359375 -0.09375 0.828125q0 0.671875 0.171875 1.1875q0.1875 0.515625 0.53125 0.8125q0.359375 0.28125 0.859375 0.28125l0 0zm4.015671 0.640625l0 -0.703125l1.609375 0l0 -6.578125l-1.546875 0l0 -0.703125l2.421875 0l0 7.28125l1.609375 0l0 0.703125l-4.09375 0zm8.312546 0.125q-0.609375 0 -1.09375 -0.1875q-0.484375 -0.1875 -0.84375 -0.546875q-0.359375 -0.359375 -0.546875 -0.890625q-0.1875 -0.546875 -0.1875 -1.21875q0 -0.703125 0.1875 -1.234375q0.203125 -0.546875 0.546875 -0.90625q0.34375 -0.375 0.796875 -0.5625q0.46875 -0.1875 0.984375 -0.1875q0.46875 0 0.875 0.15625q0.40625 0.15625 0.703125 0.46875q0.296875 0.3125 0.46875 0.8125q0.1875 0.484375 0.1875 1.15625q0 0.09375 -0.015625 0.203125q0 0.09375 -0.015625 0.203125l-3.890625 0q0.015625 0.515625 0.171875 0.90625q0.15625 0.390625 0.40625 0.640625q0.25 0.25 0.578125 0.375q0.34375 0.109375 0.703125 0.109375q0.296875 0 0.546875 -0.0625q0.25 -0.0625 0.46875 -0.203125q0.234375 -0.140625 0.40625 -0.34375l0.484375 0.46875q-0.234375 0.28125 -0.53125 0.46875q-0.28125 0.1875 -0.640625 0.28125q-0.34375 0.09375 -0.75 0.09375zm-1.8125 -3.40625l3.015625 0q0 -0.390625 -0.109375 -0.6875q-0.09375 -0.3125 -0.28125 -0.53125q-0.1875 -0.234375 -0.453125 -0.34375q-0.25 -0.109375 -0.578125 -0.109375q-0.28125 0 -0.546875 0.09375q-0.25 0.09375 -0.46875 0.3125q-0.21875 0.203125 -0.375 0.515625q-0.140625 0.3125 -0.203125 0.75zm5.968796 -2.203125l0.90625 0l-0.03125 1.59375l-0.109375 -0.171875q0.0625 -0.375 0.234375 -0.65625q0.1875 -0.296875 0.4375 -0.484375q0.265625 -0.203125 0.5625 -0.296875q0.296875 -0.109375 0.6250076 -0.109375q0.421875 0 0.78125 0.15625q0.375 0.140625 0.671875 0.4375l-0.390625 0.671875l-0.046875 0.109375l-0.078125 -0.046875q-0.03125 -0.09375 -0.078125 -0.171875q-0.046875 -0.09375 -0.203125 -0.21875q-0.1875 -0.109375 -0.359375 -0.15625q-0.15625 -0.046875 -0.359375 -0.046875q-0.29688263 0 -0.6093826 0.125q-0.296875 0.109375 -0.546875 0.359375q-0.234375 0.234375 -0.390625 0.609375q-0.140625 0.359375 -0.140625 0.875l0 2.921875l-0.875 0l0 -5.5zm7.4375534 5.609375q-0.296875 0 -0.5 -0.203125q-0.203125 -0.203125 -0.203125 -0.46875q0 -0.28125 0.203125 -0.484375q0.203125 -0.203125 0.5 -0.203125q0.265625 0 0.46875 0.203125q0.21875 0.203125 0.21875 0.484375q0 0.265625 -0.21875 0.46875q-0.203125 0.203125 -0.46875 0.203125zm5.468796 1.96875q-0.515625 0 -0.984375 -0.203125q-0.453125 -0.1875 -0.765625 -0.578125l0.484375 -0.640625l0.0625 -0.09375l0.078125 0.046875q0.015625 0.09375 0.046875 0.1875q0.046875 0.09375 0.171875 0.234375q0.171875 0.125 0.390625 0.203125q0.234375 0.09375 0.5 0.09375q0.359375 0 0.640625 -0.171875q0.28125 -0.15625 0.4375 -0.5q0.15625 -0.328125 0.15625 -0.890625l0 -4.5625l-2.03125 0l0 -0.703125l2.90625 0l0 5.21875q0 0.828125 -0.28125 1.34375q-0.28125 0.53125 -0.765625 0.765625q-0.46875 0.25 -1.046875 0.25l0 0zm1.59375 -8.734375q-0.25 0 -0.4375 -0.171875q-0.171875 -0.1875 -0.171875 -0.4375q0 -0.265625 0.171875 -0.4375q0.171875 -0.1875 0.4375 -0.1875q0.25 0 0.4375 0.1875q0.1875 0.1875 0.1875 0.4375q0 0.25 -0.1875 0.4375q-0.1875 0.171875 -0.4375 0.171875zm4.609421 6.765625q-0.9375 0 -1.4375 -0.421875q-0.5 -0.421875 -0.5 -1.078125q0 -0.453125 0.203125 -0.796875q0.21875 -0.359375 0.59375 -0.609375q0.390625 -0.25 0.890625 -0.375q0.5 -0.125 1.0625 -0.125q0.203125 0 0.40625 0q0.21875 0 0.453125 0.03125q0.234375 0.015625 0.484375 0.046875l0.03125 0.65625q-0.21875 -0.03125 -0.4375 -0.046875q-0.21875 -0.015625 -0.4375 -0.03125q-0.21875 -0.015625 -0.421875 -0.015625q-0.4375 0 -0.796875 0.078125q-0.359375 0.0625 -0.625 0.21875q-0.265625 0.140625 -0.40625 0.375q-0.140625 0.21875 -0.140625 0.546875q0 0.25 0.078125 0.421875q0.09375 0.171875 0.25 0.28125q0.15625 0.09375 0.359375 0.140625q0.21875 0.046875 0.46875 0.046875q0.46875 0 0.828125 -0.140625q0.375 -0.15625 0.625 -0.4375q0.265625 -0.296875 0.390625 -0.71875q0.140625 -0.421875 0.140625 -0.953125q0 -0.8125 -0.1875 -1.265625q-0.1875 -0.46875 -0.578125 -0.65625q-0.375 -0.1875 -0.953125 -0.1875q-0.40625 0 -0.796875 0.15625q-0.375 0.140625 -0.6875 0.453125l-0.421875 -0.5625q0.390625 -0.375 0.890625 -0.5625q0.5 -0.203125 1.0625 -0.203125q0.546875 0 0.984375 0.140625q0.453125 0.125 0.765625 0.4375q0.3125 0.296875 0.484375 0.8125q0.1875 0.515625 0.1875 1.296875l0 2.921875l-0.9375 0l0 -0.84375q-0.15625 0.296875 -0.390625 0.5q-0.21875 0.1875 -0.46875 0.296875q-0.25 0.09375 -0.515625 0.125q-0.265625 0.046875 -0.5 0.046875zm6.125046 -0.125l-2.171875 -5.484375l0.859375 0l1.78125 4.5l-0.171875 0l0.96875 -2.234375q0.296875 -0.65625 0.46875 -1.21875q0.171875 -0.5625 0.25 -1.046875l0.8125 0q-0.09375 0.5 -0.296875 1.109375q-0.203125 0.59375 -0.5 1.296875l-1.328125 3.078125l-0.671875 0zm5.875046 0.125q-0.9375 0 -1.4375 -0.421875q-0.5 -0.421875 -0.5 -1.078125q0 -0.453125 0.203125 -0.796875q0.21875 -0.359375 0.59375 -0.609375q0.390625 -0.25 0.890625 -0.375q0.5 -0.125 1.0625 -0.125q0.203125 0 0.40625 0q0.21875 0 0.453125 0.03125q0.234375 0.015625 0.484375 0.046875l0.03125 0.65625q-0.21875 -0.03125 -0.4375 -0.046875q-0.21875 -0.015625 -0.4375 -0.03125q-0.21875 -0.015625 -0.421875 -0.015625q-0.4375 0 -0.796875 0.078125q-0.359375 0.0625 -0.625 0.21875q-0.265625 0.140625 -0.40625 0.375q-0.140625 0.21875 -0.140625 0.546875q0 0.25 0.078125 0.421875q0.09375 0.171875 0.25 0.28125q0.15625 0.09375 0.359375 0.140625q0.21875 0.046875 0.46875 0.046875q0.46875 0 0.828125 -0.140625q0.375 -0.15625 0.625 -0.4375q0.265625 -0.296875 0.390625 -0.71875q0.140625 -0.421875 0.140625 -0.953125q0 -0.8125 -0.1875 -1.265625q-0.1875 -0.46875 -0.578125 -0.65625q-0.375 -0.1875 -0.953125 -0.1875q-0.40625 0 -0.796875 0.15625q-0.375 0.140625 -0.6875 0.453125l-0.421875 -0.5625q0.390625 -0.375 0.890625 -0.5625q0.5 -0.203125 1.0625 -0.203125q0.546875 0 0.984375 0.140625q0.453125 0.125 0.765625 0.4375q0.3125 0.296875 0.484375 0.8125q0.1875 0.515625 0.1875 1.296875l0 2.921875l-0.9375 0l0 -0.84375q-0.15625 0.296875 -0.390625 0.5q-0.21875 0.1875 -0.46875 0.296875q-0.25 0.09375 -0.515625 0.125q-0.265625 0.046875 -0.5 0.046875z" fill-rule="nonzero"/><path fill="#cfe2f3" d="m340.2126 101.01438l222.19806 0l0 72.03249c-111.09305 0 -111.09305 27.714447 -222.19806 13.8572235zm18.306396 0l0 -9.338562l220.68048 0l0 72.48435c-8.388428 0 -16.788818 0.5020752 -16.788818 0.5020752l0 -63.647865zm17.207062 -9.338562l0 -9.112633l222.59238 0l0 72.25841c-9.559448 0 -19.118958 0.3765564 -19.118958 0.3765564l0 -63.52233z" fill-rule="evenodd"/><path fill="#000000" fill-opacity="0.0" d="m340.2126 101.01438l222.19806 0l0 72.03249c-111.09305 0 -111.09305 27.714447 -222.19806 13.8572235zm18.306396 0l0 -9.338562l220.68048 0l0 72.48435c-8.388428 0 -16.788818 0.5020752 -16.788818 0.5020752m-186.6846 -72.98643l0 -9.112633l222.59238 0l0 72.25841c-9.559448 0 -19.118958 0.3765564 -19.118958 0.3765564" fill-rule="evenodd"/><path fill="#000000" fill-opacity="0.0" d="m340.2126 186.9041c111.10501 13.8572235 111.10501 -13.8572235 222.19806 -13.8572235l0 -8.384628c0 0 8.400391 -0.5020752 16.788818 -0.5020752l0 -8.962021c0 0 9.559509 -0.3765564 19.118958 -0.3765564l0 -72.25841l-222.59238 0l0 9.112633l-17.207062 0l0 9.338562l-18.306396 0z" fill-rule="evenodd"/><path stroke="#000000" stroke-width="1.0" stroke-linejoin="round" stroke-linecap="butt" d="m340.2126 101.01438l222.19806 0l0 72.03249c-111.09305 0 -111.09305 27.714447 -222.19806 13.8572235zm18.306396 0l0 -9.338562l220.68048 0l0 72.48435c-8.388428 0 -16.788818 0.5020752 -16.788818 0.5020752m-186.6846 -72.98643l0 -9.112633l222.59238 0l0 72.25841c-9.559448 0 -19.118958 0.3765564 -19.118958 0.3765564" fill-rule="evenodd"/><path fill="#000000" d="m349.88446 148.47923l0 -7.46875l2.203125 0q0.890625 0 1.4375 0.265625q0.546875 0.25 0.796875 0.734375q0.25 0.484375 0.25 1.125q0 0.421875 -0.1875 0.84375q-0.1875 0.421875 -0.53125 0.734375q-0.328125 0.3125 -0.796875 0.421875l1.71875 3.34375l-0.9375 0l-1.65625 -3.296875l-1.4375 0l0 3.296875l-0.859375 0zm0.859375 -4.046875l1.4375 0q0.8125 0 1.171875 -0.34375q0.359375 -0.359375 0.359375 -0.953125q0 -0.375 -0.15625 -0.671875q-0.15625 -0.3125 -0.5 -0.484375q-0.328125 -0.1875 -0.875 -0.1875l-1.4375 0l0 2.640625zm7.734436 4.171875q-0.609375 0 -1.09375 -0.1875q-0.484375 -0.1875 -0.84375 -0.546875q-0.359375 -0.359375 -0.546875 -0.890625q-0.1875 -0.546875 -0.1875 -1.21875q0 -0.703125 0.1875 -1.234375q0.203125 -0.546875 0.546875 -0.90625q0.34375 -0.375 0.796875 -0.5625q0.46875 -0.1875 0.984375 -0.1875q0.46875 0 0.875 0.15625q0.40625 0.15625 0.703125 0.46875q0.296875 0.3125 0.46875 0.8125q0.1875 0.484375 0.1875 1.15625q0 0.09375 -0.015625 0.203125q0 0.09375 -0.015625 0.203125l-3.890625 0q0.015625 0.515625 0.171875 0.90625q0.15625 0.390625 0.40625 0.640625q0.25 0.25 0.578125 0.375q0.34375 0.109375 0.703125 0.109375q0.296875 0 0.546875 -0.0625q0.25 -0.0625 0.46875 -0.203125q0.234375 -0.140625 0.40625 -0.34375l0.484375 0.46875q-0.234375 0.28125 -0.53125 0.46875q-0.28125 0.1875 -0.640625 0.28125q-0.34375 0.09375 -0.75 0.09375zm-1.8125 -3.40625l3.015625 0q0 -0.390625 -0.109375 -0.6875q-0.09375 -0.3125 -0.28125 -0.53125q-0.1875 -0.234375 -0.453125 -0.34375q-0.25 -0.109375 -0.578125 -0.109375q-0.28125 0 -0.546875 0.09375q-0.25 0.09375 -0.46875 0.3125q-0.21875 0.203125 -0.375 0.515625q-0.140625 0.3125 -0.203125 0.75zm8.9844055 5.28125l0 -2.875q-0.171875 0.296875 -0.4375 0.53125q-0.25 0.21875 -0.5625 0.34375q-0.3125 0.125 -0.671875 0.125q-0.46875 0 -0.890625 -0.203125q-0.40625 -0.21875 -0.71875 -0.59375q-0.296875 -0.390625 -0.484375 -0.90625q-0.171875 -0.53125 -0.171875 -1.1875q0 -0.671875 0.1875 -1.203125q0.203125 -0.53125 0.53125 -0.90625q0.328125 -0.375 0.765625 -0.5625q0.4375 -0.1875 0.9375 -0.1875q0.28125 0 0.515625 0.0625q0.25 0.0625 0.4375 0.1875q0.203125 0.125 0.34375 0.3125q0.15625 0.171875 0.265625 0.375l0 -0.796875l0.8125 0l0 7.484375l-0.859375 0zm-1.515625 -2.640625q0.3125 0 0.578125 -0.125q0.265625 -0.125 0.46875 -0.390625q0.21875 -0.265625 0.328125 -0.703125q0.125 -0.4375 0.125 -1.03125q0 -0.5625 -0.109375 -0.953125q-0.09375 -0.390625 -0.296875 -0.625q-0.1875 -0.234375 -0.4375 -0.34375q-0.25 -0.109375 -0.5625 -0.109375q-0.34375 0 -0.640625 0.125q-0.296875 0.125 -0.53125 0.390625q-0.21875 0.25 -0.34375 0.65625q-0.125 0.40625 -0.125 0.953125q0 0.5 0.109375 0.90625q0.109375 0.390625 0.3125 0.671875q0.203125 0.28125 0.484375 0.4375q0.28125 0.140625 0.640625 0.140625zm5.734436 0.765625q-0.328125 0 -0.625 -0.09375q-0.28125 -0.09375 -0.515625 -0.28125q-0.234375 -0.203125 -0.40625 -0.5q-0.15625 -0.3125 -0.25 -0.71875q-0.09375 -0.421875 -0.09375 -0.953125l0.015625 -3.0625l0.84375 0l0 3.0625q0 0.515625 0.09375 0.875q0.09375 0.359375 0.265625 0.578125q0.171875 0.21875 0.390625 0.3125q0.234375 0.09375 0.5 0.09375q0.28125 0 0.546875 -0.109375q0.265625 -0.125 0.46875 -0.34375q0.21875 -0.234375 0.328125 -0.59375q0.125 -0.359375 0.125 -0.84375l0 -3.03125l0.84375 0l0 4.625q0 0.21875 0.015625 0.4375q0.015625 0.203125 0.09375 0.421875l-0.828125 0q-0.046875 -0.140625 -0.078125 -0.28125q-0.015625 -0.140625 -0.03125 -0.28125q0 -0.140625 0 -0.28125q-0.140625 0.234375 -0.328125 0.421875q-0.171875 0.171875 -0.390625 0.296875q-0.21875 0.125 -0.46875 0.1875q-0.25 0.0625 -0.515625 0.0625zm6.6094055 0q-0.609375 0 -1.09375 -0.1875q-0.484375 -0.1875 -0.84375 -0.546875q-0.359375 -0.359375 -0.546875 -0.890625q-0.1875 -0.546875 -0.1875 -1.21875q0 -0.703125 0.1875 -1.234375q0.203125 -0.546875 0.546875 -0.90625q0.34375 -0.375 0.796875 -0.5625q0.46875 -0.1875 0.984375 -0.1875q0.46875 0 0.875 0.15625q0.40625 0.15625 0.703125 0.46875q0.296875 0.3125 0.46875 0.8125q0.1875 0.484375 0.1875 1.15625q0 0.09375 -0.015625 0.203125q0 0.09375 -0.015625 0.203125l-3.890625 0q0.015625 0.515625 0.171875 0.90625q0.15625 0.390625 0.40625 0.640625q0.25 0.25 0.578125 0.375q0.34375 0.109375 0.703125 0.109375q0.296875 0 0.546875 -0.0625q0.25 -0.0625 0.46875 -0.203125q0.234375 -0.140625 0.40625 -0.34375l0.484375 0.46875q-0.234375 0.28125 -0.53125 0.46875q-0.28125 0.1875 -0.640625 0.28125q-0.34375 0.09375 -0.75 0.09375zm-1.8125 -3.40625l3.015625 0q0 -0.390625 -0.109375 -0.6875q-0.09375 -0.3125 -0.28125 -0.53125q-0.1875 -0.234375 -0.453125 -0.34375q-0.25 -0.109375 -0.578125 -0.109375q-0.28125 0 -0.546875 0.09375q-0.25 0.09375 -0.46875 0.3125q-0.21875 0.203125 -0.375 0.515625q-0.140625 0.3125 -0.203125 0.75zm7.562561 3.40625q-0.453125 0 -0.875 -0.109375q-0.40625 -0.09375 -0.78125 -0.28125q-0.359375 -0.1875 -0.671875 -0.484375l0.46875 -0.8125l0.078125 -0.109375l0.078125 0.046875q0.015625 0.09375 0.046875 0.203125q0.03125 0.109375 0.171875 0.25q0.25 0.25 0.59375 0.421875q0.359375 0.15625 0.90625 0.15625q0.453125 0 0.75 -0.109375q0.3125 -0.109375 0.46875 -0.3125q0.171875 -0.203125 0.171875 -0.453125q0 -0.1875 -0.078125 -0.328125q-0.0625 -0.140625 -0.234375 -0.25q-0.15625 -0.125 -0.421875 -0.234375q-0.25 -0.125 -0.640625 -0.25q-0.625 -0.1875 -1.09375 -0.421875q-0.46875 -0.234375 -0.71875 -0.546875q-0.25 -0.328125 -0.25 -0.734375q0 -0.421875 0.21875 -0.71875q0.234375 -0.3125 0.6875 -0.484375q0.453125 -0.171875 1.109375 -0.171875q0.390625 0 0.703125 0.046875q0.3125 0.046875 0.5625 0.15625q0.265625 0.109375 0.484375 0.28125q0.234375 0.15625 0.4375 0.375l-0.5 0.59375l-0.078125 0.09375l-0.0625 -0.046875q-0.015625 -0.109375 -0.0625 -0.1875q-0.03125 -0.09375 -0.171875 -0.234375q-0.265625 -0.203125 -0.625 -0.3125q-0.34375 -0.125 -0.65625 -0.125q-0.484375 0 -0.84375 0.171875q-0.34375 0.171875 -0.34375 0.515625q0 0.171875 0.125 0.359375q0.125 0.171875 0.453125 0.34375q0.34375 0.171875 0.96875 0.34375q0.6875 0.21875 1.09375 0.453125q0.421875 0.21875 0.609375 0.515625q0.1875 0.28125 0.1875 0.671875q0 0.453125 -0.25 0.859375q-0.25 0.390625 -0.75 0.625q-0.5 0.234375 -1.265625 0.234375l0 0zm6.5781555 -0.046875q-0.53125 0 -0.875 -0.171875q-0.328125 -0.1875 -0.515625 -0.5625q-0.171875 -0.375 -0.234375 -0.953125q-0.046875 -0.578125 -0.03125 -1.359375l0.15625 -3.921875l0.890625 -0.109375l0.125 -0.015625l0.015625 0.09375q-0.0625 0.078125 -0.109375 0.171875q-0.046875 0.078125 -0.0625 0.28125l-0.109375 1.359375l0.03125 0.21875l-0.078125 1.96875q-0.03125 0.921875 0.046875 1.421875q0.078125 0.484375 0.296875 0.671875q0.21875 0.1875 0.578125 0.1875q0.390625 0 0.703125 -0.15625q0.3125 -0.15625 0.640625 -0.390625l0.265625 0.6875q-0.40625 0.296875 -0.84375 0.4375q-0.421875 0.140625 -0.890625 0.140625l0 0zm-2.75 -5.5625l3.9375 0l0 0.703125l-3.9375 0l0 -0.703125zm5.750061 -1.984375l0.875 0l0.109375 0l0 0.078125q-0.0625 0.078125 -0.09375 0.15625q-0.015625 0.078125 -0.015625 0.28125l0 2.671875l2.9375 0l0 -3.1875l0.859375 0l0.125 0l0 0.078125q-0.078125 0.078125 -0.09375 0.15625q-0.015625 0.078125 -0.015625 0.28125l0 6.953125l-0.890625 0l0 -3.5625l-2.921875 0l0 3.5625l-0.875 0l0 -7.46875zm7.9375305 7.59375q-0.9375 0 -1.4375 -0.421875q-0.5 -0.421875 -0.5 -1.078125q0 -0.453125 0.203125 -0.796875q0.21875 -0.359375 0.59375 -0.609375q0.390625 -0.25 0.890625 -0.375q0.5 -0.125 1.0625 -0.125q0.203125 0 0.40625 0q0.21875 0 0.453125 0.03125q0.234375 0.015625 0.484375 0.046875l0.03125 0.65625q-0.21875 -0.03125 -0.4375 -0.046875q-0.21875 -0.015625 -0.4375 -0.03125q-0.21875 -0.015625 -0.421875 -0.015625q-0.4375 0 -0.796875 0.078125q-0.359375 0.0625 -0.625 0.21875q-0.265625 0.140625 -0.40625 0.375q-0.140625 0.21875 -0.140625 0.546875q0 0.25 0.078125 0.421875q0.09375 0.171875 0.25 0.28125q0.15625 0.09375 0.359375 0.140625q0.21875 0.046875 0.46875 0.046875q0.46875 0 0.828125 -0.140625q0.375 -0.15625 0.625 -0.4375q0.265625 -0.296875 0.390625 -0.71875q0.140625 -0.421875 0.140625 -0.953125q0 -0.8125 -0.1875 -1.265625q-0.1875 -0.46875 -0.578125 -0.65625q-0.375 -0.1875 -0.953125 -0.1875q-0.40625 0 -0.796875 0.15625q-0.375 0.140625 -0.6875 0.453125l-0.421875 -0.5625q0.390625 -0.375 0.890625 -0.5625q0.5 -0.203125 1.0625 -0.203125q0.546875 0 0.984375 0.140625q0.453125 0.125 0.765625 0.4375q0.3125 0.296875 0.484375 0.8125q0.1875 0.515625 0.1875 1.296875l0 2.921875l-0.9375 0l0 -0.84375q-0.15625 0.296875 -0.390625 0.5q-0.21875 0.1875 -0.46875 0.296875q-0.25 0.09375 -0.515625 0.125q-0.265625 0.046875 -0.5 0.046875zm4.328186 -0.125l0 -5.484375l0.84375 0l0 0.96875q0.21875 -0.328125 0.5 -0.578125q0.296875 -0.25 0.640625 -0.375q0.34375 -0.140625 0.71875 -0.140625q0.453125 0 0.8125 0.234375q0.359375 0.21875 0.578125 0.71875q0.21875 0.5 0.21875 1.328125l0 3.328125l-0.84375 0l0 -3.296875q0 -0.578125 -0.140625 -0.921875q-0.125 -0.34375 -0.359375 -0.484375q-0.21875 -0.15625 -0.5 -0.15625q-0.28125 0 -0.5625 0.125q-0.28125 0.109375 -0.53125 0.34375q-0.234375 0.21875 -0.390625 0.53125q-0.140625 0.3125 -0.140625 0.703125l0 3.15625l-0.84375 0zm7.9531555 0.125q-0.421875 0 -0.828125 -0.171875q-0.40625 -0.1875 -0.734375 -0.546875q-0.328125 -0.359375 -0.515625 -0.90625q-0.1875 -0.5625 -0.1875 -1.296875q0 -0.75 0.203125 -1.28125q0.203125 -0.546875 0.53125 -0.875q0.34375 -0.34375 0.75 -0.5q0.40625 -0.171875 0.828125 -0.171875q0.375 0 0.6875 0.125q0.3125 0.109375 0.53125 0.328125q0.234375 0.203125 0.375 0.484375l0 -3.296875l0.796875 0l0.109375 0l0 0.09375q-0.0625 0.0625 -0.09375 0.15625q-0.015625 0.078125 -0.015625 0.28125l0.015625 6.59375q0 0.21875 0.015625 0.4375q0.015625 0.203125 0.109375 0.421875l-0.859375 0q-0.0625 -0.140625 -0.09375 -0.28125q-0.015625 -0.15625 -0.015625 -0.28125q0 -0.140625 0 -0.296875q-0.171875 0.296875 -0.421875 0.515625q-0.234375 0.21875 -0.53125 0.34375q-0.296875 0.125 -0.65625 0.125l0 0zm0.125 -0.765625q0.40625 0 0.671875 -0.15625q0.28125 -0.15625 0.4375 -0.453125q0.171875 -0.296875 0.25 -0.6875q0.078125 -0.390625 0.078125 -0.828125q0 -0.625 -0.15625 -1.109375q-0.15625 -0.484375 -0.5 -0.765625q-0.328125 -0.28125 -0.84375 -0.28125q-0.359375 0 -0.65625 0.140625q-0.28125 0.140625 -0.46875 0.40625q-0.171875 0.265625 -0.28125 0.625q-0.09375 0.359375 -0.09375 0.828125q0 0.671875 0.171875 1.1875q0.1875 0.515625 0.53125 0.8125q0.359375 0.28125 0.859375 0.28125l0 0zm4.015686 0.640625l0 -0.703125l1.609375 0l0 -6.578125l-1.546875 0l0 -0.703125l2.421875 0l0 7.28125l1.609375 0l0 0.703125l-4.09375 0zm8.3125305 0.125q-0.609375 0 -1.09375 -0.1875q-0.484375 -0.1875 -0.84375 -0.546875q-0.359375 -0.359375 -0.546875 -0.890625q-0.1875 -0.546875 -0.1875 -1.21875q0 -0.703125 0.1875 -1.234375q0.203125 -0.546875 0.546875 -0.90625q0.34375 -0.375 0.796875 -0.5625q0.46875 -0.1875 0.984375 -0.1875q0.46875 0 0.875 0.15625q0.40625 0.15625 0.703125 0.46875q0.296875 0.3125 0.46875 0.8125q0.1875 0.484375 0.1875 1.15625q0 0.09375 -0.015625 0.203125q0 0.09375 -0.015625 0.203125l-3.890625 0q0.015625 0.515625 0.171875 0.90625q0.15625 0.390625 0.40625 0.640625q0.25 0.25 0.578125 0.375q0.34375 0.109375 0.703125 0.109375q0.296875 0 0.546875 -0.0625q0.25 -0.0625 0.46875 -0.203125q0.234375 -0.140625 0.40625 -0.34375l0.484375 0.46875q-0.234375 0.28125 -0.53125 0.46875q-0.28125 0.1875 -0.640625 0.28125q-0.34375 0.09375 -0.75 0.09375zm-1.8125 -3.40625l3.015625 0q0 -0.390625 -0.109375 -0.6875q-0.09375 -0.3125 -0.28125 -0.53125q-0.1875 -0.234375 -0.453125 -0.34375q-0.25 -0.109375 -0.578125 -0.109375q-0.28125 0 -0.546875 0.09375q-0.25 0.09375 -0.46875 0.3125q-0.21875 0.203125 -0.375 0.515625q-0.140625 0.3125 -0.203125 0.75zm5.968811 -2.203125l0.90625 0l-0.03125 1.59375l-0.109375 -0.171875q0.0625 -0.375 0.234375 -0.65625q0.1875 -0.296875 0.4375 -0.484375q0.265625 -0.203125 0.5625 -0.296875q0.296875 -0.109375 0.625 -0.109375q0.421875 0 0.78125 0.15625q0.375 0.140625 0.671875 0.4375l-0.390625 0.671875l-0.046875 0.109375l-0.078125 -0.046875q-0.03125 -0.09375 -0.078125 -0.171875q-0.046875 -0.09375 -0.203125 -0.21875q-0.1875 -0.109375 -0.359375 -0.15625q-0.15625 -0.046875 -0.359375 -0.046875q-0.296875 0 -0.609375 0.125q-0.296875 0.109375 -0.546875 0.359375q-0.234375 0.234375 -0.390625 0.609375q-0.140625 0.359375 -0.140625 0.875l0 2.921875l-0.875 0l0 -5.5zm7.4375305 5.609375q-0.296875 0 -0.5 -0.203125q-0.203125 -0.203125 -0.203125 -0.46875q0 -0.28125 0.203125 -0.484375q0.203125 -0.203125 0.5 -0.203125q0.265625 0 0.46875 0.203125q0.21875 0.203125 0.21875 0.484375q0 0.265625 -0.21875 0.46875q-0.203125 0.203125 -0.46875 0.203125zm5.468811 1.96875q-0.515625 0 -0.984375 -0.203125q-0.453125 -0.1875 -0.765625 -0.578125l0.484375 -0.640625l0.0625 -0.09375l0.078125 0.046875q0.015625 0.09375 0.046875 0.1875q0.046875 0.09375 0.171875 0.234375q0.171875 0.125 0.390625 0.203125q0.234375 0.09375 0.5 0.09375q0.359375 0 0.640625 -0.171875q0.28125 -0.15625 0.4375 -0.5q0.15625 -0.328125 0.15625 -0.890625l0 -4.5625l-2.03125 0l0 -0.703125l2.90625 0l0 5.21875q0 0.828125 -0.28125 1.34375q-0.28125 0.53125 -0.765625 0.765625q-0.46875 0.25 -1.046875 0.25l0 0zm1.59375 -8.734375q-0.25 0 -0.4375 -0.171875q-0.171875 -0.1875 -0.171875 -0.4375q0 -0.265625 0.171875 -0.4375q0.171875 -0.1875 0.4375 -0.1875q0.25 0 0.4375 0.1875q0.1875 0.1875 0.1875 0.4375q0 0.25 -0.1875 0.4375q-0.1875 0.171875 -0.4375 0.171875zm4.6094055 6.765625q-0.9375 0 -1.4375 -0.421875q-0.5 -0.421875 -0.5 -1.078125q0 -0.453125 0.203125 -0.796875q0.21875 -0.359375 0.59375 -0.609375q0.390625 -0.25 0.890625 -0.375q0.5 -0.125 1.0625 -0.125q0.203125 0 0.40625 0q0.21875 0 0.453125 0.03125q0.234375 0.015625 0.484375 0.046875l0.03125 0.65625q-0.21875 -0.03125 -0.4375 -0.046875q-0.21875 -0.015625 -0.4375 -0.03125q-0.21875 -0.015625 -0.421875 -0.015625q-0.4375 0 -0.796875 0.078125q-0.359375 0.0625 -0.625 0.21875q-0.265625 0.140625 -0.40625 0.375q-0.140625 0.21875 -0.140625 0.546875q0 0.25 0.078125 0.421875q0.09375 0.171875 0.25 0.28125q0.15625 0.09375 0.359375 0.140625q0.21875 0.046875 0.46875 0.046875q0.46875 0 0.828125 -0.140625q0.375 -0.15625 0.625 -0.4375q0.265625 -0.296875 0.390625 -0.71875q0.140625 -0.421875 0.140625 -0.953125q0 -0.8125 -0.1875 -1.265625q-0.1875 -0.46875 -0.578125 -0.65625q-0.375 -0.1875 -0.953125 -0.1875q-0.40625 0 -0.796875 0.15625q-0.375 0.140625 -0.6875 0.453125l-0.421875 -0.5625q0.390625 -0.375 0.890625 -0.5625q0.5 -0.203125 1.0625 -0.203125q0.546875 0 0.984375 0.140625q0.453125 0.125 0.765625 0.4375q0.3125 0.296875 0.484375 0.8125q0.1875 0.515625 0.1875 1.296875l0 2.921875l-0.9375 0l0 -0.84375q-0.15625 0.296875 -0.390625 0.5q-0.21875 0.1875 -0.46875 0.296875q-0.25 0.09375 -0.515625 0.125q-0.265625 0.046875 -0.5 0.046875zm6.125061 -0.125l-2.171875 -5.484375l0.859375 0l1.78125 4.5l-0.171875 0l0.96875 -2.234375q0.296875 -0.65625 0.46875 -1.21875q0.171875 -0.5625 0.25 -1.046875l0.8125 0q-0.09375 0.5 -0.296875 1.109375q-0.203125 0.59375 -0.5 1.296875l-1.328125 3.078125l-0.671875 0zm5.8750305 0.125q-0.9375 0 -1.4375 -0.421875q-0.5 -0.421875 -0.5 -1.078125q0 -0.453125 0.203125 -0.796875q0.21875 -0.359375 0.59375 -0.609375q0.390625 -0.25 0.890625 -0.375q0.5 -0.125 1.0625 -0.125q0.203125 0 0.40625 0q0.21875 0 0.453125 0.03125q0.234375 0.015625 0.484375 0.046875l0.03125 0.65625q-0.21875 -0.03125 -0.4375 -0.046875q-0.21875 -0.015625 -0.4375 -0.03125q-0.21875 -0.015625 -0.421875 -0.015625q-0.4375 0 -0.796875 0.078125q-0.359375 0.0625 -0.625 0.21875q-0.265625 0.140625 -0.40625 0.375q-0.140625 0.21875 -0.140625 0.546875q0 0.25 0.078125 0.421875q0.09375 0.171875 0.25 0.28125q0.15625 0.09375 0.359375 0.140625q0.21875 0.046875 0.46875 0.046875q0.46875 0 0.828125 -0.140625q0.375 -0.15625 0.625 -0.4375q0.265625 -0.296875 0.390625 -0.71875q0.140625 -0.421875 0.140625 -0.953125q0 -0.8125 -0.1875 -1.265625q-0.1875 -0.46875 -0.578125 -0.65625q-0.375 -0.1875 -0.953125 -0.1875q-0.40625 0 -0.796875 0.15625q-0.375 0.140625 -0.6875 0.453125l-0.421875 -0.5625q0.390625 -0.375 0.890625 -0.5625q0.5 -0.203125 1.0625 -0.203125q0.546875 0 0.984375 0.140625q0.453125 0.125 0.765625 0.4375q0.3125 0.296875 0.484375 0.8125q0.1875 0.515625 0.1875 1.296875l0 2.921875l-0.9375 0l0 -0.84375q-0.15625 0.296875 -0.390625 0.5q-0.21875 0.1875 -0.46875 0.296875q-0.25 0.09375 -0.515625 0.125q-0.265625 0.046875 -0.5 0.046875zm6.328186 0q-0.296875 0 -0.5 -0.203125q-0.203125 -0.203125 -0.203125 -0.46875q0 -0.28125 0.203125 -0.484375q0.203125 -0.203125 0.5 -0.203125q0.265625 0 0.46875 0.203125q0.21875 0.203125 0.21875 0.484375q0 0.265625 -0.21875 0.46875q-0.203125 0.203125 -0.46875 0.203125zm6.1562805 0q-0.453125 0 -0.875 -0.109375q-0.40625 -0.09375 -0.78125 -0.28125q-0.359375 -0.1875 -0.671875 -0.484375l0.46875 -0.8125l0.078125 -0.109375l0.078125 0.046875q0.015625 0.09375 0.046875 0.203125q0.03125 0.109375 0.171875 0.25q0.25 0.25 0.59375 0.421875q0.359375 0.15625 0.90625 0.15625q0.453125 0 0.75 -0.109375q0.3125 -0.109375 0.46875 -0.3125q0.171875 -0.203125 0.171875 -0.453125q0 -0.1875 -0.078125 -0.328125q-0.0625 -0.140625 -0.234375 -0.25q-0.15625 -0.125 -0.421875 -0.234375q-0.25 -0.125 -0.640625 -0.25q-0.625 -0.1875 -1.09375 -0.421875q-0.46875 -0.234375 -0.71875 -0.546875q-0.25 -0.328125 -0.25 -0.734375q0 -0.421875 0.21875 -0.71875q0.234375 -0.3125 0.6875 -0.484375q0.453125 -0.171875 1.109375 -0.171875q0.390625 0 0.703125 0.046875q0.3125 0.046875 0.5625 0.15625q0.265625 0.109375 0.484375 0.28125q0.234375 0.15625 0.4375 0.375l-0.5 0.59375l-0.078125 0.09375l-0.0625 -0.046875q-0.015625 -0.109375 -0.0625 -0.1875q-0.03125 -0.09375 -0.171875 -0.234375q-0.265625 -0.203125 -0.625 -0.3125q-0.34375 -0.125 -0.65625 -0.125q-0.484375 0 -0.84375 0.171875q-0.34375 0.171875 -0.34375 0.515625q0 0.171875 0.125 0.359375q0.125 0.171875 0.453125 0.34375q0.34375 0.171875 0.96875 0.34375q0.6875 0.21875 1.09375 0.453125q0.421875 0.21875 0.609375 0.515625q0.1875 0.28125 0.1875 0.671875q0 0.453125 -0.25 0.859375q-0.25 0.390625 -0.75 0.625q-0.5 0.234375 -1.265625 0.234375l0 0zm6.250061 0q-0.609375 0 -1.09375 -0.1875q-0.484375 -0.1875 -0.84375 -0.546875q-0.359375 -0.359375 -0.546875 -0.890625q-0.1875 -0.546875 -0.1875 -1.21875q0 -0.703125 0.1875 -1.234375q0.203125 -0.546875 0.546875 -0.90625q0.34375 -0.375 0.796875 -0.5625q0.46875 -0.1875 0.984375 -0.1875q0.46875 0 0.875 0.15625q0.40625 0.15625 0.703125 0.46875q0.296875 0.3125 0.46875 0.8125q0.1875 0.484375 0.1875 1.15625q0 0.09375 -0.015625 0.203125q0 0.09375 -0.015625 0.203125l-3.890625 0q0.015625 0.515625 0.171875 0.90625q0.15625 0.390625 0.40625 0.640625q0.25 0.25 0.578125 0.375q0.34375 0.109375 0.703125 0.109375q0.296875 0 0.546875 -0.0625q0.25 -0.0625 0.46875 -0.203125q0.234375 -0.140625 0.40625 -0.34375l0.484375 0.46875q-0.234375 0.28125 -0.53125 0.46875q-0.28125 0.1875 -0.640625 0.28125q-0.34375 0.09375 -0.75 0.09375zm-1.8125 -3.40625l3.015625 0q0 -0.390625 -0.109375 -0.6875q-0.09375 -0.3125 -0.28125 -0.53125q-0.1875 -0.234375 -0.453125 -0.34375q-0.25 -0.109375 -0.578125 -0.109375q-0.28125 0 -0.546875 0.09375q-0.25 0.09375 -0.46875 0.3125q-0.21875 0.203125 -0.375 0.515625q-0.140625 0.3125 -0.203125 0.75zm5.0000305 3.28125l0 -5.484375l0.796875 0l0 0.546875q0.125 -0.203125 0.296875 -0.359375q0.1875 -0.15625 0.390625 -0.234375q0.203125 -0.078125 0.421875 -0.078125q0.25 0 0.453125 0.109375q0.203125 0.09375 0.328125 0.28125q0.140625 0.171875 0.203125 0.40625q0.09375 -0.234375 0.28125 -0.40625q0.1875 -0.1875 0.4375 -0.28125q0.25 -0.109375 0.515625 -0.109375q0.265625 0 0.46875 0.109375q0.203125 0.09375 0.328125 0.28125q0.140625 0.1875 0.203125 0.453125q0.0625 0.25 0.046875 0.546875l0 4.21875l-0.78125 0l0 -3.890625q0 -0.5 -0.078125 -0.71875q-0.0625 -0.234375 -0.1875 -0.296875q-0.109375 -0.078125 -0.265625 -0.078125q-0.21875 0 -0.421875 0.21875q-0.1875 0.203125 -0.328125 0.515625q-0.125 0.3125 -0.125 0.625l0 3.625l-0.796875 0l0 -3.8125q0 -0.6875 -0.125 -0.90625q-0.125 -0.234375 -0.46875 -0.234375q-0.140625 0 -0.28125 0.09375q-0.140625 0.078125 -0.265625 0.25q-0.109375 0.15625 -0.1875 0.40625q-0.0625 0.234375 -0.0625 0.546875l0 3.65625l-0.796875 0zm8.078186 0.125q-0.9375 0 -1.4375 -0.421875q-0.5 -0.421875 -0.5 -1.078125q0 -0.453125 0.203125 -0.796875q0.21875 -0.359375 0.59375 -0.609375q0.390625 -0.25 0.890625 -0.375q0.5 -0.125 1.0625 -0.125q0.203125 0 0.40625 0q0.21875 0 0.453125 0.03125q0.234375 0.015625 0.484375 0.046875l0.03125 0.65625q-0.21875 -0.03125 -0.4375 -0.046875q-0.21875 -0.015625 -0.4375 -0.03125q-0.21875 -0.015625 -0.421875 -0.015625q-0.4375 0 -0.796875 0.078125q-0.359375 0.0625 -0.625 0.21875q-0.265625 0.140625 -0.40625 0.375q-0.140625 0.21875 -0.140625 0.546875q0 0.25 0.078125 0.421875q0.09375 0.171875 0.25 0.28125q0.15625 0.09375 0.359375 0.140625q0.21875 0.046875 0.46875 0.046875q0.46875 0 0.828125 -0.140625q0.375 -0.15625 0.625 -0.4375q0.265625 -0.296875 0.390625 -0.71875q0.140625 -0.421875 0.140625 -0.953125q0 -0.8125 -0.1875 -1.265625q-0.1875 -0.46875 -0.578125 -0.65625q-0.375 -0.1875 -0.953125 -0.1875q-0.40625 0 -0.796875 0.15625q-0.375 0.140625 -0.6875 0.453125l-0.421875 -0.5625q0.390625 -0.375 0.890625 -0.5625q0.5 -0.203125 1.0625 -0.203125q0.546875 0 0.984375 0.140625q0.453125 0.125 0.765625 0.4375q0.3125 0.296875 0.484375 0.8125q0.1875 0.515625 0.1875 1.296875l0 2.921875l-0.9375 0l0 -0.84375q-0.15625 0.296875 -0.390625 0.5q-0.21875 0.1875 -0.46875 0.296875q-0.25 0.09375 -0.515625 0.125q-0.265625 0.046875 -0.5 0.046875zm4.3281555 -0.125l0 -5.484375l0.84375 0l0 0.96875q0.21875 -0.328125 0.5 -0.578125q0.296875 -0.25 0.640625 -0.375q0.34375 -0.140625 0.71875 -0.140625q0.453125 0 0.8125 0.234375q0.359375 0.21875 0.578125 0.71875q0.21875 0.5 0.21875 1.328125l0 3.328125l-0.84375 0l0 -3.296875q0 -0.578125 -0.140625 -0.921875q-0.125 -0.34375 -0.359375 -0.484375q-0.21875 -0.15625 -0.5 -0.15625q-0.28125 0 -0.5625 0.125q-0.28125 0.109375 -0.53125 0.34375q-0.234375 0.21875 -0.390625 0.53125q-0.140625 0.3125 -0.140625 0.703125l0 3.15625l-0.84375 0zm8.734436 0.078125q-0.53125 0 -0.875 -0.171875q-0.328125 -0.1875 -0.515625 -0.5625q-0.171875 -0.375 -0.234375 -0.953125q-0.046875 -0.578125 -0.03125 -1.359375l0.15625 -3.921875l0.890625 -0.109375l0.125 -0.015625l0.015625 0.09375q-0.0625 0.078125 -0.109375 0.171875q-0.046875 0.078125 -0.0625 0.28125l-0.109375 1.359375l0.03125 0.21875l-0.078125 1.96875q-0.03125 0.921875 0.046875 1.421875q0.078125 0.484375 0.296875 0.671875q0.21875 0.1875 0.578125 0.1875q0.390625 0 0.703125 -0.15625q0.3125 -0.15625 0.640625 -0.390625l0.265625 0.6875q-0.40625 0.296875 -0.84375 0.4375q-0.421875 0.140625 -0.890625 0.140625l0 0zm-2.75 -5.5625l3.9375 0l0 0.703125l-3.9375 0l0 -0.703125zm6.3594055 5.484375l0 -0.703125l1.40625 0l0 -4.078125l-1.34375 0l0 -0.703125l2.203125 0l0 4.78125l1.28125 0l0 0.703125l-3.546875 0zm1.78125 -6.640625q-0.25 0 -0.4375 -0.171875q-0.171875 -0.1875 -0.171875 -0.4375q0 -0.265625 0.171875 -0.4375q0.171875 -0.1875 0.4375 -0.1875q0.25 0 0.4375 0.1875q0.1875 0.1875 0.1875 0.4375q0 0.25 -0.1875 0.4375q-0.1875 0.171875 -0.4375 0.171875zm6.4375305 6.765625q-0.609375 0 -1.109375 -0.203125q-0.5 -0.21875 -0.875 -0.59375q-0.359375 -0.390625 -0.5625 -0.90625q-0.20309448 -0.53125 -0.20309448 -1.15625q0 -0.609375 0.20309448 -1.125q0.203125 -0.53125 0.5625 -0.90625q0.375 -0.390625 0.875 -0.609375q0.5 -0.21875 1.09375 -0.21875q0.671875 0 1.203125 0.28125q0.53125 0.265625 0.875 0.734375l-0.546875 0.53125l-0.078125 0.09375l-0.0625 -0.0625q0 -0.09375 -0.046875 -0.171875q-0.03125 -0.09375 -0.171875 -0.234375q-0.265625 -0.25 -0.578125 -0.34375q-0.296875 -0.09375 -0.6875 -0.09375q-0.34375 0 -0.65625 0.140625q-0.3125 0.140625 -0.5625 0.421875q-0.25 0.265625 -0.390625 0.65625q-0.140625 0.375 -0.140625 0.84375q0 0.46875 0.140625 0.859375q0.140625 0.390625 0.390625 0.6875q0.265625 0.28125 0.609375 0.453125q0.359375 0.15625 0.765625 0.15625q0.28125 0 0.53125 -0.078125q0.25 -0.078125 0.46875 -0.234375q0.234375 -0.15625 0.421875 -0.359375l0.515625 0.578125q-0.421875 0.4375 -0.921875 0.65625q-0.484375 0.203125 -1.0625 0.203125l0 0zm5.390686 0q-0.421875 0 -0.828125 -0.171875q-0.40625 -0.1875 -0.734375 -0.546875q-0.328125 -0.359375 -0.515625 -0.90625q-0.1875 -0.5625 -0.1875 -1.296875q0 -0.75 0.203125 -1.28125q0.203125 -0.546875 0.53125 -0.875q0.34375 -0.34375 0.75 -0.5q0.40625 -0.171875 0.828125 -0.171875q0.375 0 0.6875 0.125q0.3125 0.109375 0.53125 0.328125q0.234375 0.203125 0.375 0.484375l0 -3.296875l0.796875 0l0.109375 0l0 0.09375q-0.0625 0.0625 -0.09375 0.15625q-0.015625 0.078125 -0.015625 0.28125l0.015625 6.59375q0 0.21875 0.015625 0.4375q0.015625 0.203125 0.109375 0.421875l-0.859375 0q-0.0625 -0.140625 -0.09375 -0.28125q-0.015625 -0.15625 -0.015625 -0.28125q0 -0.140625 0 -0.296875q-0.171875 0.296875 -0.421875 0.515625q-0.234375 0.21875 -0.53125 0.34375q-0.296875 0.125 -0.65625 0.125l0 0zm0.125 -0.765625q0.40625 0 0.671875 -0.15625q0.28125 -0.15625 0.4375 -0.453125q0.171875 -0.296875 0.25 -0.6875q0.078125 -0.390625 0.078125 -0.828125q0 -0.625 -0.15625 -1.109375q-0.15625 -0.484375 -0.5 -0.765625q-0.328125 -0.28125 -0.84375 -0.28125q-0.359375 0 -0.65625 0.140625q-0.28125 0.140625 -0.46875 0.40625q-0.171875 0.265625 -0.28125 0.625q-0.09375 0.359375 -0.09375 0.828125q0 0.671875 0.171875 1.1875q0.1875 0.515625 0.53125 0.8125q0.359375 0.28125 0.859375 0.28125l0 0zm6.250061 0.765625q-0.328125 0 -0.640625 -0.109375q-0.296875 -0.09375 -0.546875 -0.28125q-0.234375 -0.1875 -0.421875 -0.453125l-0.3125 0.71875l-0.546875 0l0 -7.984375l0.859375 0l0.125 0l0 0.09375q-0.078125 0.0625 -0.09375 0.15625q-0.015625 0.078125 -0.015625 0.28125l0 2.8125q0.140625 -0.21875 0.3125 -0.390625q0.1875 -0.1875 0.390625 -0.3125q0.21875 -0.140625 0.453125 -0.203125q0.25 -0.0625 0.484375 -0.0625q0.5 0 0.90625 0.171875q0.421875 0.171875 0.71875 0.53125q0.296875 0.34375 0.453125 0.875q0.171875 0.53125 0.171875 1.234375q0 0.734375 -0.203125 1.296875q-0.1875 0.546875 -0.515625 0.90625q-0.328125 0.359375 -0.734375 0.546875q-0.40625 0.171875 -0.84375 0.171875l0 0zm-0.109375 -0.765625q0.296875 0 0.5625 -0.109375q0.265625 -0.109375 0.484375 -0.34375q0.21875 -0.25 0.34375 -0.65625q0.125 -0.40625 0.125 -1.0q0 -0.53125 -0.109375 -0.9375q-0.109375 -0.40625 -0.3125 -0.671875q-0.1875 -0.265625 -0.46875 -0.390625q-0.265625 -0.125 -0.59375 -0.125q-0.453125 0 -0.796875 0.28125q-0.328125 0.265625 -0.53125 0.75q-0.1875 0.484375 -0.1875 1.125q0 0.46875 0.078125 0.859375q0.09375 0.375 0.265625 0.65625q0.171875 0.265625 0.453125 0.421875q0.28125 0.140625 0.6875 0.140625l0 0z" fill-rule="nonzero"/><path fill="#cfe2f3" d="m701.9029 82.56427l220.96063 0l0 86.96916c-110.48035 0 -110.48035 33.136856 -220.96063 14.309097z" fill-rule="evenodd"/><path stroke="#000000" stroke-width="1.0" stroke-linejoin="round" stroke-linecap="butt" d="m701.9029 82.56427l220.96063 0l0 86.96916c-110.48035 0 -110.48035 33.136856 -220.96063 14.309097z" fill-rule="evenodd"/><path fill="#000000" d="m719.63727 140.59073q-1.5 0 -2.84375 -0.578125q-1.328125 -0.578125 -2.375 -1.765625q-1.046875 -1.203125 -1.640625 -2.984375q-0.59375 -1.78125 -0.59375 -4.171875q0 -2.328125 0.578125 -4.078125q0.578125 -1.765625 1.59375 -2.9375q1.03125 -1.1875 2.375 -1.765625q1.359375 -0.578125 2.953125 -0.578125q0.875 0 1.703125 0.234375q0.84375 0.234375 1.515625 0.671875q0.671875 0.4375 1.109375 1.21875l0 -9.625l4.28125 0l0.390625 0l0 0.34375q-0.234375 0.234375 -0.296875 0.515625q-0.046875 0.265625 -0.046875 0.921875l-0.046875 21.765625q0 0.609375 0.078125 1.1875q0.078125 0.578125 0.359375 1.203125l-4.296875 0q-0.1875 -0.421875 -0.265625 -0.6875q-0.078125 -0.28125 -0.109375 -0.5625q-0.015625 -0.296875 -0.015625 -0.71875q-0.46875 0.8125 -1.171875 1.359375q-0.6875 0.53125 -1.5 0.78125q-0.8125 0.25 -1.734375 0.25l0 0zm0.734375 -3.515625q0.890625 0 1.5625 -0.359375q0.6875 -0.375 1.125 -1.109375q0.453125 -0.734375 0.65625 -1.875q0.21875 -1.140625 0.21875 -2.609375q0 -2.015625 -0.390625 -3.34375q-0.390625 -1.328125 -1.203125 -1.984375q-0.8125 -0.65625 -2.078125 -0.65625q-0.890625 0 -1.625 0.40625q-0.734375 0.40625 -1.203125 1.1875q-0.46875 0.765625 -0.71875 1.84375q-0.25 1.078125 -0.25 2.4375q0 1.890625 0.515625 3.25q0.53125 1.34375 1.421875 2.078125q0.890625 0.734375 1.96875 0.734375l0 0zm18.046875 3.5625q-1.078125 0 -2.046875 -0.296875q-0.953125 -0.28125 -1.734375 -0.875q-0.765625 -0.609375 -1.328125 -1.53125q-0.5625 -0.9375 -0.875 -2.234375q-0.3125 -1.296875 -0.3125 -2.953125l0 -10.546875l4.40625 0l0 10.546875q0 1.203125 0.1875 2.03125q0.203125 0.828125 0.578125 1.359375q0.390625 0.515625 0.90625 0.75q0.53125 0.234375 1.109375 0.234375q0.8125 0 1.484375 -0.296875q0.6875 -0.296875 1.171875 -0.875q0.484375 -0.578125 0.75 -1.4375q0.265625 -0.875 0.265625 -2.078125l0 -10.234375l4.375 0l0 15.109375q0 0.84375 0.046875 1.53125q0.0625 0.671875 0.34375 1.328125l-3.984375 0q-0.1875 -0.390625 -0.265625 -0.765625q-0.078125 -0.390625 -0.109375 -0.796875q-0.015625 -0.40625 -0.015625 -0.75q-0.421875 0.65625 -0.96875 1.171875q-0.53125 0.515625 -1.171875 0.875q-0.640625 0.34375 -1.359375 0.53125q-0.71875 0.203125 -1.453125 0.203125zm12.296875 -0.46875l0 -17.96875l3.671875 0l0 1.3125q0.46875 -0.625 0.96875 -1.0q0.5 -0.390625 1.0625 -0.5625q0.5625 -0.1875 1.109375 -0.1875q0.65625 0 1.234375 0.21875q0.578125 0.21875 1.0625 0.703125q0.484375 0.46875 0.75 1.25q0.421875 -0.734375 0.96875 -1.21875q0.546875 -0.484375 1.25 -0.71875q0.71875 -0.234375 1.578125 -0.234375q1.0 0 1.6875 0.359375q0.703125 0.34375 1.140625 1.0q0.453125 0.65625 0.640625 1.625q0.203125 0.96875 0.203125 2.15625l0 13.265625l-3.796875 0l0 -12.328125q0 -1.15625 -0.125 -1.796875q-0.109375 -0.640625 -0.34375 -0.890625q-0.21875 -0.25 -0.609375 -0.25q-0.5 0 -0.96875 0.484375q-0.46875 0.484375 -0.765625 1.3125q-0.28125 0.828125 -0.28125 1.953125l0 11.515625l-3.546875 0l0 -12.21875q0 -1.859375 -0.28125 -2.46875q-0.265625 -0.625 -1.0 -0.625q-0.34375 0 -0.671875 0.234375q-0.328125 0.234375 -0.59375 0.6875q-0.25 0.4375 -0.40625 1.109375q-0.140625 0.671875 -0.140625 1.53125l0 11.75l-3.796875 0zm20.03125 6.453125l-0.046875 -24.46875l4.328125 0l0 2.515625q0.625 -1.0 1.375 -1.640625q0.75 -0.640625 1.703125 -0.953125q0.953125 -0.3125 1.984375 -0.3125q1.46875 0 2.765625 0.609375q1.296875 0.59375 2.265625 1.796875q0.96875 1.1875 1.53125 2.953125q0.5625 1.765625 0.5625 4.125q0 2.34375 -0.59375 4.125q-0.578125 1.78125 -1.609375 2.9375q-1.015625 1.15625 -2.3125 1.75q-1.28125 0.578125 -2.671875 0.578125q-0.96875 0 -1.890625 -0.234375q-0.90625 -0.234375 -1.6875 -0.671875q-0.765625 -0.453125 -1.265625 -1.109375l0 8.0l-4.4375 0zm8.078125 -9.390625q0.84375 0 1.578125 -0.3125q0.734375 -0.3125 1.296875 -1.015625q0.5625 -0.71875 0.875 -1.921875q0.3125 -1.203125 0.3125 -2.96875q0 -1.78125 -0.46875 -3.078125q-0.46875 -1.296875 -1.328125 -1.984375q-0.84375 -0.703125 -2.03125 -0.734375q-0.9375 -0.046875 -1.65625 0.3125q-0.703125 0.34375 -1.21875 1.125q-0.5 0.765625 -0.765625 1.96875q-0.265625 1.1875 -0.265625 2.890625q0.03125 1.15625 0.1875 2.09375q0.15625 0.921875 0.4375 1.59375q0.296875 0.671875 0.71875 1.125q0.4375 0.4375 1.015625 0.671875q0.578125 0.234375 1.3125 0.234375zm18.625 3.40625q-1.234375 0 -2.09375 -0.84375q-0.84375 -0.859375 -0.84375 -2.0625q0 -1.203125 0.84375 -2.046875q0.859375 -0.84375 2.09375 -0.84375q1.203125 0 2.046875 0.84375q0.859375 0.84375 0.859375 2.046875q0 1.203125 -0.859375 2.0625q-0.84375 0.84375 -2.046875 0.84375zm12.53125 -0.46875l0 -3.4375l5.0625 0l0 -19.0625l-4.828125 0l0 -3.4375l9.234375 0l0 22.5l5.03125 0l0 3.4375l-14.5 0zm26.90625 0.421875q-1.625 0 -3.140625 -0.296875q-1.5 -0.28125 -2.78125 -0.921875q-1.265625 -0.640625 -2.359375 -1.640625l1.9375 -3.546875l0.15625 -0.3125l0.3125 0.1875q0.109375 0.265625 0.21875 0.59375q0.125 0.328125 0.59375 0.765625q0.96875 0.8125 2.203125 1.28125q1.234375 0.453125 2.9375 0.453125q1.078125 0 1.828125 -0.25q0.75 -0.25 1.15625 -0.6875q0.40625 -0.453125 0.40625 -1.03125q0 -0.46875 -0.234375 -0.8125q-0.21875 -0.34375 -0.734375 -0.609375q-0.5 -0.28125 -1.3125 -0.5625q-0.796875 -0.296875 -1.921875 -0.640625q-1.96875 -0.515625 -3.421875 -1.265625q-1.453125 -0.75 -2.234375 -1.828125q-0.765625 -1.09375 -0.765625 -2.515625q0 -1.515625 0.859375 -2.671875q0.875 -1.15625 2.453125 -1.828125q1.59375 -0.6875 3.765625 -0.6875q1.125 0 2.125 0.1875q1.0 0.171875 1.90625 0.5q0.90625 0.328125 1.703125 0.84375q0.796875 0.515625 1.484375 1.21875l-2.125 2.984375l-0.265625 0.296875l-0.265625 -0.234375q-0.046875 -0.296875 -0.1875 -0.578125q-0.125 -0.296875 -0.59375 -0.734375q-0.765625 -0.578125 -1.75 -0.84375q-0.984375 -0.265625 -1.953125 -0.265625q-1.3125 0 -2.265625 0.421875q-0.953125 0.421875 -0.953125 1.3125q0 0.5 0.421875 0.90625q0.4375 0.40625 1.421875 0.78125q0.984375 0.359375 2.609375 0.78125q2.15625 0.578125 3.53125 1.34375q1.375 0.75 2.015625 1.796875q0.640625 1.03125 0.640625 2.4375q0 1.5 -0.859375 2.8125q-0.84375 1.3125 -2.484375 2.09375q-1.640625 0.765625 -4.078125 0.765625l0 0zm12.5625 -0.421875l0 -3.4375l4.40625 0l0 -11.09375l-4.171875 0l0 -3.4375l8.578125 0l0 14.53125l4.015625 0l0 3.4375l-12.828125 0zm6.40625 -20.953125q-1.109375 0 -1.921875 -0.765625q-0.8125 -0.78125 -0.8125 -1.859375q0 -1.15625 0.765625 -1.890625q0.78125 -0.734375 1.96875 -0.734375q1.09375 0 1.921875 0.78125q0.828125 0.765625 0.828125 1.84375q0 1.078125 -0.828125 1.859375q-0.828125 0.765625 -1.921875 0.765625zm15.046875 6.375l-3.90625 0l0 -3.390625l3.90625 0l0 -1.09375q0 -2.46875 1.015625 -4.03125q1.03125 -1.5625 2.734375 -2.328125q1.703125 -0.78125 3.671875 -0.78125q1.8125 0 3.375 0.640625q1.578125 0.625 2.65625 1.828125l-1.625 2.96875l-0.1875 0.3125l-0.3125 -0.1875q-0.125 -0.265625 -0.234375 -0.5625q-0.109375 -0.296875 -0.625 -0.71875q-0.65625 -0.453125 -1.3125 -0.671875q-0.65625 -0.21875 -1.5 -0.21875q-1.015625 0 -1.796875 0.4375q-0.765625 0.421875 -1.15625 1.234375q-0.375 0.8125 -0.375 2.046875l0 1.125l5.40625 0l0 3.390625l-5.40625 0l0 14.578125l-4.328125 0l0 -14.578125z" fill-rule="nonzero"/><path fill="#000000" fill-opacity="0.0" d="m252.56168 132.14436l71.71655 0" fill-rule="evenodd"/><path stroke="#000000" stroke-width="1.0" stroke-linejoin="round" stroke-linecap="butt" d="m252.56168 132.14436l65.71655 0" fill-rule="evenodd"/><path fill="#000000" stroke="#000000" stroke-width="1.0" stroke-linecap="butt" d="m318.27823 133.7961l4.538086 -1.6517334l-4.538086 -1.6517334z" fill-rule="evenodd"/><path fill="#000000" fill-opacity="0.0" d="m614.25195 132.14436l71.71655 0" fill-rule="evenodd"/><path stroke="#000000" stroke-width="1.0" stroke-linejoin="round" stroke-linecap="butt" d="m614.25195 132.14436l65.71655 0" fill-rule="evenodd"/><path fill="#000000" stroke="#000000" stroke-width="1.0" stroke-linecap="butt" d="m679.9685 133.7961l4.538086 -1.6517334l-4.538086 -1.6517334z" fill-rule="evenodd"/><path fill="#000000" fill-opacity="0.0" d="m188.67192 7.6981626l199.49605 0l0 42.015747l-199.49605 0z" fill-rule="evenodd"/><path fill="#000000" d="m218.48245 34.80566q-0.71875 0 -1.359375 -0.15625q-0.640625 -0.140625 -1.21875 -0.4375q-0.5625 -0.296875 -1.046875 -0.75l0.75 -1.265625l0.109375 -0.171875l0.109375 0.078125q0.046875 0.140625 0.09375 0.3125q0.046875 0.15625 0.25 0.375q0.390625 0.390625 0.9375 0.640625q0.546875 0.25 1.40625 0.25q0.6875 0 1.15625 -0.15625q0.484375 -0.171875 0.75 -0.484375q0.265625 -0.3125 0.265625 -0.71875q0 -0.28125 -0.125 -0.484375q-0.109375 -0.21875 -0.359375 -0.40625q-0.25 -0.1875 -0.671875 -0.375q-0.40625 -0.1875 -1.0 -0.375q-0.96875 -0.28125 -1.703125 -0.65625q-0.71875 -0.375 -1.109375 -0.859375q-0.390625 -0.5 -0.390625 -1.125q0 -0.65625 0.34375 -1.125q0.359375 -0.484375 1.0625 -0.75q0.703125 -0.28125 1.734375 -0.28125q0.59375 0 1.078125 0.09375q0.484375 0.078125 0.890625 0.25q0.40625 0.15625 0.75 0.421875q0.359375 0.25 0.671875 0.578125l-0.765625 0.9375l-0.140625 0.140625l-0.078125 -0.09375q-0.03125 -0.140625 -0.09375 -0.28125q-0.0625 -0.140625 -0.265625 -0.34375q-0.4375 -0.34375 -0.984375 -0.515625q-0.53125 -0.171875 -1.03125 -0.171875q-0.75 0 -1.296875 0.265625q-0.53125 0.25 -0.53125 0.796875q0 0.28125 0.1875 0.546875q0.203125 0.265625 0.71875 0.546875q0.53125 0.265625 1.5 0.546875q1.0625 0.328125 1.703125 0.671875q0.640625 0.34375 0.921875 0.796875q0.296875 0.453125 0.296875 1.0625q0 0.71875 -0.390625 1.328125q-0.375 0.609375 -1.15625 0.984375q-0.78125 0.359375 -1.96875 0.359375l0 0zm9.71875 0q-0.9375 0 -1.703125 -0.28125q-0.765625 -0.296875 -1.3125 -0.859375q-0.546875 -0.5625 -0.84375 -1.390625q-0.296875 -0.828125 -0.296875 -1.890625q0 -1.078125 0.296875 -1.921875q0.3125 -0.84375 0.84375 -1.40625q0.53125 -0.578125 1.25 -0.875q0.71875 -0.296875 1.515625 -0.296875q0.734375 0 1.359375 0.25q0.640625 0.234375 1.109375 0.734375q0.46875 0.5 0.734375 1.265625q0.265625 0.75 0.265625 1.796875q0 0.15625 -0.015625 0.3125q0 0.15625 -0.015625 0.3125l-6.0625 0q0.03125 0.8125 0.265625 1.421875q0.25 0.609375 0.640625 1.0q0.390625 0.375 0.90625 0.5625q0.515625 0.1875 1.09375 0.1875q0.453125 0 0.84375 -0.09375q0.390625 -0.109375 0.734375 -0.328125q0.34375 -0.21875 0.625 -0.53125l0.75 0.71875q-0.359375 0.4375 -0.8125 0.734375q-0.453125 0.296875 -1.0 0.4375q-0.546875 0.140625 -1.171875 0.140625zm-2.828125 -5.296875l4.6875 0q0 -0.59375 -0.15625 -1.0625q-0.15625 -0.484375 -0.453125 -0.828125q-0.28125 -0.34375 -0.6875 -0.515625q-0.390625 -0.1875 -0.90625 -0.1875q-0.4375 0 -0.84375 0.15625q-0.40625 0.140625 -0.75 0.46875q-0.328125 0.328125 -0.5625 0.8125q-0.234375 0.484375 -0.328125 1.15625zm7.78125 5.109375l0 -8.53125l1.234375 0l0 0.84375q0.203125 -0.3125 0.46875 -0.546875q0.28125 -0.234375 0.609375 -0.359375q0.328125 -0.140625 0.65625 -0.140625q0.375 0 0.6875 0.171875q0.328125 0.15625 0.53125 0.4375q0.21875 0.265625 0.296875 0.640625q0.171875 -0.375 0.453125 -0.640625q0.296875 -0.28125 0.671875 -0.4375q0.390625 -0.171875 0.796875 -0.171875q0.421875 0 0.734375 0.171875q0.328125 0.171875 0.53125 0.46875q0.203125 0.28125 0.296875 0.6875q0.09375 0.390625 0.078125 0.859375l0 6.546875l-1.234375 0l0 -6.046875q0 -0.78125 -0.109375 -1.125q-0.09375 -0.359375 -0.28125 -0.46875q-0.1875 -0.109375 -0.40625 -0.109375q-0.359375 0 -0.671875 0.328125q-0.296875 0.328125 -0.5 0.8125q-0.1875 0.484375 -0.1875 0.96875l0 5.640625l-1.25 0l0 -5.9375q0 -1.0625 -0.203125 -1.40625q-0.1875 -0.359375 -0.734375 -0.359375q-0.203125 0 -0.421875 0.140625q-0.21875 0.140625 -0.40625 0.390625q-0.171875 0.25 -0.296875 0.625q-0.109375 0.375 -0.109375 0.859375l0 5.6875l-1.234375 0zm12.5625 0.203125q-1.453125 0 -2.234375 -0.65625q-0.78125 -0.671875 -0.78125 -1.6875q0 -0.6875 0.328125 -1.234375q0.328125 -0.5625 0.921875 -0.9375q0.59375 -0.390625 1.375 -0.59375q0.78125 -0.203125 1.65625 -0.203125q0.3125 0 0.640625 0.015625q0.328125 0 0.6875 0.03125q0.375 0.03125 0.765625 0.078125l0.03125 1.03125q-0.328125 -0.0625 -0.671875 -0.078125q-0.34375 -0.03125 -0.6875 -0.046875q-0.328125 -0.03125 -0.65625 -0.03125q-0.671875 0 -1.234375 0.125q-0.546875 0.109375 -0.96875 0.328125q-0.40625 0.21875 -0.640625 0.578125q-0.21875 0.359375 -0.21875 0.859375q0 0.390625 0.140625 0.671875q0.140625 0.265625 0.375 0.421875q0.25 0.15625 0.578125 0.234375q0.328125 0.0625 0.71875 0.0625q0.734375 0 1.296875 -0.21875q0.578125 -0.234375 0.96875 -0.6875q0.40625 -0.453125 0.609375 -1.09375q0.203125 -0.65625 0.203125 -1.5q0 -1.265625 -0.296875 -1.96875q-0.296875 -0.71875 -0.890625 -1.015625q-0.578125 -0.296875 -1.5 -0.296875q-0.609375 0 -1.203125 0.234375q-0.59375 0.234375 -1.078125 0.71875l-0.65625 -0.859375q0.59375 -0.59375 1.375 -0.890625q0.78125 -0.3125 1.65625 -0.3125q0.84375 0 1.53125 0.21875q0.6875 0.203125 1.1875 0.6875q0.5 0.46875 0.765625 1.265625q0.265625 0.796875 0.265625 2.015625l0 4.53125l-1.453125 0l0 -1.3125q-0.234375 0.46875 -0.59375 0.765625q-0.34375 0.296875 -0.734375 0.46875q-0.390625 0.15625 -0.796875 0.21875q-0.40625 0.0625 -0.78125 0.0625zm6.734375 -0.203125l0 -8.53125l1.3125 0l0 1.515625q0.328125 -0.515625 0.765625 -0.890625q0.453125 -0.390625 1.0 -0.609375q0.546875 -0.21875 1.125 -0.21875q0.703125 0 1.265625 0.359375q0.5625 0.359375 0.890625 1.140625q0.34375 0.78125 0.34375 2.0625l0 5.171875l-1.3125 0l0 -5.125q0 -0.90625 -0.203125 -1.4375q-0.203125 -0.53125 -0.5625 -0.765625q-0.359375 -0.234375 -0.796875 -0.234375q-0.4375 0 -0.875 0.1875q-0.4375 0.1875 -0.8125 0.53125q-0.375 0.34375 -0.609375 0.84375q-0.21875 0.484375 -0.21875 1.09375l0 4.90625l-1.3125 0zm13.5625 0.125q-0.828125 0 -1.34375 -0.265625q-0.515625 -0.28125 -0.796875 -0.875q-0.28125 -0.59375 -0.375 -1.484375q-0.078125 -0.890625 -0.046875 -2.125l0.234375 -6.078125l1.390625 -0.171875l0.1875 -0.015625l0.015625 0.125q-0.09375 0.125 -0.15625 0.265625q-0.0625 0.125 -0.09375 0.4375l-0.171875 2.109375l0.0625 0.34375l-0.140625 3.078125q-0.046875 1.421875 0.078125 2.203125q0.125 0.765625 0.453125 1.0625q0.34375 0.28125 0.90625 0.28125q0.625 0 1.09375 -0.234375q0.46875 -0.25 1.0 -0.625l0.40625 1.0625q-0.625 0.46875 -1.296875 0.6875q-0.671875 0.21875 -1.40625 0.21875l0 0zm-4.265625 -8.65625l6.125 0l0 1.109375l-6.125 0l0 -1.109375zm9.875 8.53125l0 -1.078125l2.1875 0l0 -6.359375l-2.0625 0l0 -1.09375l3.40625 0l0 7.453125l2.0 0l0 1.078125l-5.53125 0zm2.78125 -10.3125q-0.390625 0 -0.671875 -0.28125q-0.28125 -0.28125 -0.28125 -0.671875q0 -0.40625 0.265625 -0.6875q0.28125 -0.28125 0.6875 -0.28125q0.390625 0 0.671875 0.296875q0.296875 0.28125 0.296875 0.671875q0 0.390625 -0.296875 0.671875q-0.28125 0.28125 -0.671875 0.28125zm10.0 10.515625q-0.921875 0 -1.71875 -0.328125q-0.78125 -0.34375 -1.359375 -0.9375q-0.5625 -0.59375 -0.875 -1.40625q-0.3125 -0.8125 -0.3125 -1.78125q0 -0.953125 0.3125 -1.765625q0.3125 -0.8125 0.875 -1.40625q0.578125 -0.59375 1.359375 -0.921875q0.796875 -0.34375 1.703125 -0.34375q1.046875 0 1.875 0.421875q0.828125 0.40625 1.359375 1.15625l-0.84375 0.828125l-0.125 0.125l-0.09375 -0.09375q0 -0.15625 -0.078125 -0.28125q-0.0625 -0.125 -0.28125 -0.359375q-0.40625 -0.359375 -0.875 -0.515625q-0.46875 -0.15625 -1.078125 -0.15625q-0.546875 0 -1.03125 0.234375q-0.484375 0.21875 -0.875 0.640625q-0.375 0.421875 -0.609375 1.015625q-0.21875 0.59375 -0.21875 1.328125q0 0.71875 0.21875 1.328125q0.234375 0.609375 0.625 1.0625q0.390625 0.4375 0.9375 0.703125q0.546875 0.25 1.1875 0.25q0.4375 0 0.828125 -0.125q0.390625 -0.125 0.734375 -0.359375q0.359375 -0.234375 0.65625 -0.5625l0.78125 0.90625q-0.625 0.671875 -1.40625 1.015625q-0.765625 0.328125 -1.671875 0.328125l0 0zm8.375 -0.015625q-0.640625 0 -1.265625 -0.28125q-0.625 -0.28125 -1.140625 -0.84375q-0.515625 -0.5625 -0.8125 -1.40625q-0.296875 -0.859375 -0.296875 -2.0q0 -1.171875 0.3125 -2.0q0.3125 -0.84375 0.828125 -1.375q0.53125 -0.53125 1.15625 -0.78125q0.640625 -0.25 1.296875 -0.25q0.59375 0 1.0625 0.1875q0.484375 0.1875 0.84375 0.515625q0.375 0.328125 0.578125 0.765625l0 -5.125l1.234375 0l0.1875 0l0 0.125q-0.109375 0.125 -0.140625 0.25q-0.03125 0.125 -0.03125 0.453125l0.015625 10.25q0 0.34375 0.03125 0.671875q0.03125 0.328125 0.15625 0.65625l-1.328125 0q-0.09375 -0.21875 -0.125 -0.4375q-0.03125 -0.234375 -0.046875 -0.4375q-0.015625 -0.21875 -0.015625 -0.453125q-0.25 0.453125 -0.625 0.796875q-0.375 0.34375 -0.84375 0.53125q-0.46875 0.1875 -1.03125 0.1875l0 0zm0.21875 -1.171875q0.609375 0 1.03125 -0.25q0.4375 -0.265625 0.6875 -0.71875q0.265625 -0.453125 0.390625 -1.0625q0.125 -0.609375 0.125 -1.296875q0 -0.953125 -0.25 -1.703125q-0.234375 -0.75 -0.765625 -1.1875q-0.515625 -0.453125 -1.34375 -0.453125q-0.546875 0 -1.0 0.21875q-0.4375 0.21875 -0.734375 0.625q-0.28125 0.40625 -0.4375 0.984375q-0.140625 0.5625 -0.140625 1.28125q0 1.0625 0.28125 1.859375q0.28125 0.796875 0.8125 1.25q0.546875 0.453125 1.34375 0.453125l0 0zm9.71875 1.1875q-0.53125 0 -1.0 -0.15625q-0.46875 -0.15625 -0.84375 -0.453125q-0.375 -0.296875 -0.6875 -0.71875l-0.453125 1.125l-0.859375 0l0 -12.40625l1.34375 0l0.1875 0l0 0.125q-0.125 0.125 -0.15625 0.25q-0.015625 0.125 -0.015625 0.453125l0 4.359375q0.203125 -0.34375 0.484375 -0.609375q0.28125 -0.28125 0.609375 -0.484375q0.34375 -0.21875 0.71875 -0.3125q0.375 -0.109375 0.71875 -0.109375q0.78125 0 1.421875 0.28125q0.65625 0.265625 1.109375 0.8125q0.46875 0.546875 0.71875 1.375q0.265625 0.8125 0.265625 1.921875q0 1.140625 -0.3125 2.0q-0.296875 0.84375 -0.8125 1.421875q-0.5 0.5625 -1.140625 0.84375q-0.625 0.28125 -1.296875 0.28125l0 0zm-0.171875 -1.1875q0.453125 0 0.859375 -0.171875q0.421875 -0.171875 0.75 -0.546875q0.34375 -0.390625 0.53125 -1.015625q0.203125 -0.640625 0.203125 -1.546875q0 -0.84375 -0.171875 -1.46875q-0.15625 -0.625 -0.46875 -1.03125q-0.3125 -0.421875 -0.75 -0.609375q-0.421875 -0.203125 -0.921875 -0.203125q-0.6875 0 -1.21875 0.421875q-0.53125 0.421875 -0.828125 1.1875q-0.296875 0.75 -0.296875 1.734375q0 0.734375 0.125 1.328125q0.140625 0.59375 0.40625 1.03125q0.265625 0.421875 0.703125 0.65625q0.4375 0.234375 1.078125 0.234375l0 0zm6.609375 -4.265625l0 -1.25l5.21875 0l0 1.25l-5.21875 0zm10.875 8.5q-0.8125 0 -1.53125 -0.296875q-0.71875 -0.296875 -1.203125 -0.90625l0.75 -1.0l0.109375 -0.15625l0.109375 0.078125q0.046875 0.15625 0.09375 0.296875q0.0625 0.140625 0.265625 0.359375q0.265625 0.203125 0.609375 0.328125q0.34375 0.140625 0.765625 0.140625q0.5625 0 1.0 -0.265625q0.4375 -0.25 0.671875 -0.78125q0.25 -0.53125 0.25 -1.375l0 -7.09375l-3.171875 0l0 -1.109375l4.546875 0l0 8.125q0 1.28125 -0.453125 2.09375q-0.453125 0.8125 -1.1875 1.1875q-0.734375 0.375 -1.625 0.375l0 0zm2.46875 -13.5625q-0.390625 0 -0.671875 -0.28125q-0.28125 -0.28125 -0.28125 -0.671875q0 -0.40625 0.265625 -0.6875q0.28125 -0.28125 0.6875 -0.28125q0.390625 0 0.671875 0.296875q0.296875 0.28125 0.296875 0.671875q0 0.390625 -0.296875 0.671875q-0.28125 0.28125 -0.671875 0.28125zm7.171875 10.515625q-1.453125 0 -2.234375 -0.65625q-0.78125 -0.671875 -0.78125 -1.6875q0 -0.6875 0.328125 -1.234375q0.328125 -0.5625 0.921875 -0.9375q0.59375 -0.390625 1.375 -0.59375q0.78125 -0.203125 1.65625 -0.203125q0.3125 0 0.640625 0.015625q0.328125 0 0.6875 0.03125q0.375 0.03125 0.765625 0.078125l0.03125 1.03125q-0.328125 -0.0625 -0.671875 -0.078125q-0.34375 -0.03125 -0.6875 -0.046875q-0.328125 -0.03125 -0.65625 -0.03125q-0.671875 0 -1.234375 0.125q-0.546875 0.109375 -0.96875 0.328125q-0.40625 0.21875 -0.640625 0.578125q-0.21875 0.359375 -0.21875 0.859375q0 0.390625 0.140625 0.671875q0.140625 0.265625 0.375 0.421875q0.25 0.15625 0.578125 0.234375q0.328125 0.0625 0.71875 0.0625q0.734375 0 1.296875 -0.21875q0.578125 -0.234375 0.96875 -0.6875q0.40625 -0.453125 0.609375 -1.09375q0.203125 -0.65625 0.203125 -1.5q0 -1.265625 -0.296875 -1.96875q-0.296875 -0.71875 -0.890625 -1.015625q-0.578125 -0.296875 -1.5 -0.296875q-0.609375 0 -1.203125 0.234375q-0.59375 0.234375 -1.078125 0.71875l-0.65625 -0.859375q0.59375 -0.59375 1.375 -0.890625q0.78125 -0.3125 1.65625 -0.3125q0.84375 0 1.53125 0.21875q0.6875 0.203125 1.1875 0.6875q0.5 0.46875 0.765625 1.265625q0.265625 0.796875 0.265625 2.015625l0 4.53125l-1.453125 0l0 -1.3125q-0.234375 0.46875 -0.59375 0.765625q-0.34375 0.296875 -0.734375 0.46875q-0.390625 0.15625 -0.796875 0.21875q-0.40625 0.0625 -0.78125 0.0625zm9.515625 -0.203125l-3.375 -8.53125l1.34375 0l2.75 7.0l-0.25 0l1.5 -3.46875q0.453125 -1.03125 0.71875 -1.90625q0.28125 -0.875 0.40625 -1.625l1.265625 0q-0.140625 0.78125 -0.46875 1.71875q-0.3125 0.9375 -0.78125 2.015625l-2.0625 4.796875l-1.046875 0zm9.140625 0.203125q-1.453125 0 -2.234375 -0.65625q-0.78125 -0.671875 -0.78125 -1.6875q0 -0.6875 0.328125 -1.234375q0.328125 -0.5625 0.921875 -0.9375q0.59375 -0.390625 1.375 -0.59375q0.78125 -0.203125 1.65625 -0.203125q0.3125 0 0.640625 0.015625q0.328125 0 0.6875 0.03125q0.375 0.03125 0.765625 0.078125l0.03125 1.03125q-0.328125 -0.0625 -0.671875 -0.078125q-0.34375 -0.03125 -0.6875 -0.046875q-0.328125 -0.03125 -0.65625 -0.03125q-0.671875 0 -1.234375 0.125q-0.546875 0.109375 -0.96875 0.328125q-0.40625 0.21875 -0.640625 0.578125q-0.21875 0.359375 -0.21875 0.859375q0 0.390625 0.140625 0.671875q0.140625 0.265625 0.375 0.421875q0.25 0.15625 0.578125 0.234375q0.328125 0.0625 0.71875 0.0625q0.734375 0 1.296875 -0.21875q0.578125 -0.234375 0.96875 -0.6875q0.40625 -0.453125 0.609375 -1.09375q0.203125 -0.65625 0.203125 -1.5q0 -1.265625 -0.296875 -1.96875q-0.296875 -0.71875 -0.890625 -1.015625q-0.578125 -0.296875 -1.5 -0.296875q-0.609375 0 -1.203125 0.234375q-0.59375 0.234375 -1.078125 0.71875l-0.65625 -0.859375q0.59375 -0.59375 1.375 -0.890625q0.78125 -0.3125 1.65625 -0.3125q0.84375 0 1.53125 0.21875q0.6875 0.203125 1.1875 0.6875q0.5 0.46875 0.765625 1.265625q0.265625 0.796875 0.265625 2.015625l0 4.53125l-1.453125 0l0 -1.3125q-0.234375 0.46875 -0.59375 0.765625q-0.34375 0.296875 -0.734375 0.46875q-0.390625 0.15625 -0.796875 0.21875q-0.40625 0.0625 -0.78125 0.0625zm10.703125 0q-0.921875 0 -1.71875 -0.328125q-0.78125 -0.34375 -1.359375 -0.9375q-0.5625 -0.59375 -0.875 -1.40625q-0.3125 -0.8125 -0.3125 -1.78125q0 -0.953125 0.3125 -1.765625q0.3125 -0.8125 0.875 -1.40625q0.578125 -0.59375 1.359375 -0.921875q0.796875 -0.34375 1.703125 -0.34375q1.046875 0 1.875 0.421875q0.828125 0.40625 1.359375 1.15625l-0.84375 0.828125l-0.125 0.125l-0.09375 -0.09375q0 -0.15625 -0.078125 -0.28125q-0.0625 -0.125 -0.28125 -0.359375q-0.40625 -0.359375 -0.875 -0.515625q-0.46875 -0.15625 -1.078125 -0.15625q-0.546875 0 -1.03125 0.234375q-0.484375 0.21875 -0.875 0.640625q-0.375 0.421875 -0.609375 1.015625q-0.21875 0.59375 -0.21875 1.328125q0 0.71875 0.21875 1.328125q0.234375 0.609375 0.625 1.0625q0.390625 0.4375 0.9375 0.703125q0.546875 0.25 1.1875 0.25q0.4375 0 0.828125 -0.125q0.390625 -0.125 0.734375 -0.359375q0.359375 -0.234375 0.65625 -0.5625l0.78125 0.90625q-0.625 0.671875 -1.40625 1.015625q-0.765625 0.328125 -1.671875 0.328125l0 0z" fill-rule="nonzero"/><path fill="#000000" fill-opacity="0.0" d="m554.69556 7.6981626l199.49603 0l0 42.015747l-199.49603 0z" fill-rule="evenodd"/><path fill="#000000" d="m585.95135 34.61816l0 -1.078125l2.53125 0l0 -10.25l-2.421875 0l0 -1.078125l3.78125 0l0 11.328125l2.5 0l0 1.078125l-6.390625 0zm12.546875 0.1875q-0.71875 0 -1.359375 -0.15625q-0.640625 -0.140625 -1.21875 -0.4375q-0.5625 -0.296875 -1.046875 -0.75l0.75 -1.265625l0.109375 -0.171875l0.109375 0.078125q0.046875 0.140625 0.09375 0.3125q0.046875 0.15625 0.25 0.375q0.390625 0.390625 0.9375 0.640625q0.546875 0.25 1.40625 0.25q0.6875 0 1.15625 -0.15625q0.484375 -0.171875 0.75 -0.484375q0.265625 -0.3125 0.265625 -0.71875q0 -0.28125 -0.125 -0.484375q-0.109375 -0.21875 -0.359375 -0.40625q-0.25 -0.1875 -0.671875 -0.375q-0.40625 -0.1875 -1.0 -0.375q-0.96875 -0.28125 -1.703125 -0.65625q-0.71875 -0.375 -1.109375 -0.859375q-0.390625 -0.5 -0.390625 -1.125q0 -0.65625 0.34375 -1.125q0.359375 -0.484375 1.0625 -0.75q0.703125 -0.28125 1.734375 -0.28125q0.59375 0 1.078125 0.09375q0.484375 0.078125 0.890625 0.25q0.40625 0.15625 0.75 0.421875q0.359375 0.25 0.671875 0.578125l-0.765625 0.9375l-0.140625 0.140625l-0.078125 -0.09375q-0.03125 -0.140625 -0.09375 -0.28125q-0.0625 -0.140625 -0.265625 -0.34375q-0.4375 -0.34375 -0.984375 -0.515625q-0.53125 -0.171875 -1.03125 -0.171875q-0.75 0 -1.296875 0.265625q-0.53125 0.25 -0.53125 0.796875q0 0.28125 0.1875 0.546875q0.203125 0.265625 0.71875 0.546875q0.53125 0.265625 1.5 0.546875q1.0625 0.328125 1.703125 0.671875q0.640625 0.34375 0.921875 0.796875q0.296875 0.453125 0.296875 1.0625q0 0.71875 -0.390625 1.328125q-0.375 0.609375 -1.15625 0.984375q-0.78125 0.359375 -1.96875 0.359375l0 0zm6.5 -0.1875l0 -1.078125l2.1875 0l0 -6.359375l-2.0625 0l0 -1.09375l3.40625 0l0 7.453125l2.0 0l0 1.078125l-5.53125 0zm2.78125 -10.3125q-0.390625 0 -0.671875 -0.28125q-0.28125 -0.28125 -0.28125 -0.671875q0 -0.40625 0.265625 -0.6875q0.28125 -0.28125 0.6875 -0.28125q0.390625 0 0.671875 0.296875q0.296875 0.28125 0.296875 0.671875q0 0.390625 -0.296875 0.671875q-0.28125 0.28125 -0.671875 0.28125zm7.703125 2.84375l-1.84375 0l0 -1.0625l1.84375 0l0 -0.703125q0 -1.140625 0.40625 -1.859375q0.40625 -0.734375 1.109375 -1.078125q0.71875 -0.34375 1.625 -0.34375q0.796875 0 1.5 0.296875q0.703125 0.28125 1.171875 0.875l-0.71875 0.984375l-0.109375 0.15625l-0.109375 -0.078125q-0.015625 -0.140625 -0.078125 -0.296875q-0.046875 -0.15625 -0.25 -0.375q-0.3125 -0.265625 -0.609375 -0.375q-0.296875 -0.109375 -0.765625 -0.109375q-0.53125 0 -0.96875 0.21875q-0.421875 0.21875 -0.671875 0.6875q-0.234375 0.46875 -0.234375 1.296875l0 0.703125l2.796875 0l0 1.0625l-2.796875 0l0 7.46875l-1.296875 0l0 -7.46875zm8.390625 2.21875l0 -1.25l5.21875 0l0 1.25l-5.21875 0zm11.9375 5.4375q-0.71875 0 -1.359375 -0.15625q-0.640625 -0.140625 -1.21875 -0.4375q-0.5625 -0.296875 -1.046875 -0.75l0.75 -1.265625l0.109375 -0.171875l0.109375 0.078125q0.046875 0.140625 0.09375 0.3125q0.046875 0.15625 0.25 0.375q0.390625 0.390625 0.9375 0.640625q0.546875 0.25 1.40625 0.25q0.6875 0 1.15625 -0.15625q0.484375 -0.171875 0.75 -0.484375q0.265625 -0.3125 0.265625 -0.71875q0 -0.28125 -0.125 -0.484375q-0.109375 -0.21875 -0.359375 -0.40625q-0.25 -0.1875 -0.671875 -0.375q-0.40625 -0.1875 -1.0 -0.375q-0.96875 -0.28125 -1.703125 -0.65625q-0.71875 -0.375 -1.109375 -0.859375q-0.390625 -0.5 -0.390625 -1.125q0 -0.65625 0.34375 -1.125q0.359375 -0.484375 1.0625 -0.75q0.703125 -0.28125 1.734375 -0.28125q0.59375 0 1.078125 0.09375q0.484375 0.078125 0.890625 0.25q0.40625 0.15625 0.75 0.421875q0.359375 0.25 0.671875 0.578125l-0.765625 0.9375l-0.140625 0.140625l-0.078125 -0.09375q-0.03125 -0.140625 -0.09375 -0.28125q-0.0625 -0.140625 -0.265625 -0.34375q-0.4375 -0.34375 -0.984375 -0.515625q-0.53125 -0.171875 -1.03125 -0.171875q-0.75 0 -1.296875 0.265625q-0.53125 0.25 -0.53125 0.796875q0 0.28125 0.1875 0.546875q0.203125 0.265625 0.71875 0.546875q0.53125 0.265625 1.5 0.546875q1.0625 0.328125 1.703125 0.671875q0.640625 0.34375 0.921875 0.796875q0.296875 0.453125 0.296875 1.0625q0 0.71875 -0.390625 1.328125q-0.375 0.609375 -1.15625 0.984375q-0.78125 0.359375 -1.96875 0.359375l0 0zm9.71875 0q-0.9375 0 -1.703125 -0.28125q-0.765625 -0.296875 -1.3125 -0.859375q-0.546875 -0.5625 -0.84375 -1.390625q-0.296875 -0.828125 -0.296875 -1.890625q0 -1.078125 0.296875 -1.921875q0.3125 -0.84375 0.84375 -1.40625q0.53125 -0.578125 1.25 -0.875q0.71875 -0.296875 1.515625 -0.296875q0.734375 0 1.359375 0.25q0.640625 0.234375 1.109375 0.734375q0.46875 0.5 0.734375 1.265625q0.265625 0.75 0.265625 1.796875q0 0.15625 -0.015625 0.3125q0 0.15625 -0.015625 0.3125l-6.0625 0q0.03125 0.8125 0.265625 1.421875q0.25 0.609375 0.640625 1.0q0.390625 0.375 0.90625 0.5625q0.515625 0.1875 1.09375 0.1875q0.453125 0 0.84375 -0.09375q0.390625 -0.109375 0.734375 -0.328125q0.34375 -0.21875 0.625 -0.53125l0.75 0.71875q-0.359375 0.4375 -0.8125 0.734375q-0.453125 0.296875 -1.0 0.4375q-0.546875 0.140625 -1.171875 0.140625zm-2.828125 -5.296875l4.6875 0q0 -0.59375 -0.15625 -1.0625q-0.15625 -0.484375 -0.453125 -0.828125q-0.28125 -0.34375 -0.6875 -0.515625q-0.390625 -0.1875 -0.90625 -0.1875q-0.4375 0 -0.84375 0.15625q-0.40625 0.140625 -0.75 0.46875q-0.328125 0.328125 -0.5625 0.8125q-0.234375 0.484375 -0.328125 1.15625zm7.78125 5.109375l0 -8.53125l1.234375 0l0 0.84375q0.203125 -0.3125 0.46875 -0.546875q0.28125 -0.234375 0.609375 -0.359375q0.328125 -0.140625 0.65625 -0.140625q0.375 0 0.6875 0.171875q0.328125 0.15625 0.53125 0.4375q0.21875 0.265625 0.296875 0.640625q0.171875 -0.375 0.453125 -0.640625q0.296875 -0.28125 0.671875 -0.4375q0.390625 -0.171875 0.796875 -0.171875q0.421875 0 0.734375 0.171875q0.328125 0.171875 0.53125 0.46875q0.203125 0.28125 0.296875 0.6875q0.09375 0.390625 0.078125 0.859375l0 6.546875l-1.234375 0l0 -6.046875q0 -0.78125 -0.109375 -1.125q-0.09375 -0.359375 -0.28125 -0.46875q-0.1875 -0.109375 -0.40625 -0.109375q-0.359375 0 -0.671875 0.328125q-0.296875 0.328125 -0.5 0.8125q-0.1875 0.484375 -0.1875 0.96875l0 5.640625l-1.25 0l0 -5.9375q0 -1.0625 -0.203125 -1.40625q-0.1875 -0.359375 -0.734375 -0.359375q-0.203125 0 -0.421875 0.140625q-0.21875 0.140625 -0.40625 0.390625q-0.171875 0.25 -0.296875 0.625q-0.109375 0.375 -0.109375 0.859375l0 5.6875l-1.234375 0zm12.5625 0.203125q-1.453125 0 -2.234375 -0.65625q-0.78125 -0.671875 -0.78125 -1.6875q0 -0.6875 0.328125 -1.234375q0.328125 -0.5625 0.921875 -0.9375q0.59375 -0.390625 1.375 -0.59375q0.78125 -0.203125 1.65625 -0.203125q0.3125 0 0.640625 0.015625q0.328125 0 0.6875 0.03125q0.375 0.03125 0.765625 0.078125l0.03125 1.03125q-0.328125 -0.0625 -0.671875 -0.078125q-0.34375 -0.03125 -0.6875 -0.046875q-0.328125 -0.03125 -0.65625 -0.03125q-0.671875 0 -1.234375 0.125q-0.546875 0.109375 -0.96875 0.328125q-0.40625 0.21875 -0.640625 0.578125q-0.21875 0.359375 -0.21875 0.859375q0 0.390625 0.140625 0.671875q0.140625 0.265625 0.375 0.421875q0.25 0.15625 0.578125 0.234375q0.328125 0.0625 0.71875 0.0625q0.734375 0 1.296875 -0.21875q0.578125 -0.234375 0.96875 -0.6875q0.40625 -0.453125 0.609375 -1.09375q0.203125 -0.65625 0.203125 -1.5q0 -1.265625 -0.296875 -1.96875q-0.296875 -0.71875 -0.890625 -1.015625q-0.578125 -0.296875 -1.5 -0.296875q-0.609375 0 -1.203125 0.234375q-0.59375 0.234375 -1.078125 0.71875l-0.65625 -0.859375q0.59375 -0.59375 1.375 -0.890625q0.78125 -0.3125 1.65625 -0.3125q0.84375 0 1.53125 0.21875q0.6875 0.203125 1.1875 0.6875q0.5 0.46875 0.765625 1.265625q0.265625 0.796875 0.265625 2.015625l0 4.53125l-1.453125 0l0 -1.3125q-0.234375 0.46875 -0.59375 0.765625q-0.34375 0.296875 -0.734375 0.46875q-0.390625 0.15625 -0.796875 0.21875q-0.40625 0.0625 -0.78125 0.0625zm6.734375 -0.203125l0 -8.53125l1.3125 0l0 1.515625q0.328125 -0.515625 0.765625 -0.890625q0.453125 -0.390625 1.0 -0.609375q0.546875 -0.21875 1.125 -0.21875q0.703125 0 1.265625 0.359375q0.5625 0.359375 0.890625 1.140625q0.34375 0.78125 0.34375 2.0625l0 5.171875l-1.3125 0l0 -5.125q0 -0.90625 -0.203125 -1.4375q-0.203125 -0.53125 -0.5625 -0.765625q-0.359375 -0.234375 -0.796875 -0.234375q-0.4375 0 -0.875 0.1875q-0.4375 0.1875 -0.8125 0.53125q-0.375 0.34375 -0.609375 0.84375q-0.21875 0.484375 -0.21875 1.09375l0 4.90625l-1.3125 0zm13.5625 0.125q-0.828125 0 -1.34375 -0.265625q-0.515625 -0.28125 -0.796875 -0.875q-0.28125 -0.59375 -0.375 -1.484375q-0.078125 -0.890625 -0.046875 -2.125l0.234375 -6.078125l1.390625 -0.171875l0.1875 -0.015625l0.015625 0.125q-0.09375 0.125 -0.15625 0.265625q-0.0625 0.125 -0.09375 0.4375l-0.171875 2.109375l0.0625 0.34375l-0.140625 3.078125q-0.046875 1.421875 0.078125 2.203125q0.125 0.765625 0.453125 1.0625q0.34375 0.28125 0.90625 0.28125q0.625 0 1.09375 -0.234375q0.46875 -0.25 1.0 -0.625l0.40625 1.0625q-0.625 0.46875 -1.296875 0.6875q-0.671875 0.21875 -1.40625 0.21875l0 0zm-4.265625 -8.65625l6.125 0l0 1.109375l-6.125 0l0 -1.109375zm9.875 8.53125l0 -1.078125l2.1875 0l0 -6.359375l-2.0625 0l0 -1.09375l3.40625 0l0 7.453125l2.0 0l0 1.078125l-5.53125 0zm2.78125 -10.3125q-0.390625 0 -0.671875 -0.28125q-0.28125 -0.28125 -0.28125 -0.671875q0 -0.40625 0.265625 -0.6875q0.28125 -0.28125 0.6875 -0.28125q0.390625 0 0.671875 0.296875q0.296875 0.28125 0.296875 0.671875q0 0.390625 -0.296875 0.671875q-0.28125 0.28125 -0.671875 0.28125zm10.0 10.515625q-0.921875 0 -1.71875 -0.328125q-0.78125 -0.34375 -1.359375 -0.9375q-0.5625 -0.59375 -0.875 -1.40625q-0.3125 -0.8125 -0.3125 -1.78125q0 -0.953125 0.3125 -1.765625q0.3125 -0.8125 0.875 -1.40625q0.578125 -0.59375 1.359375 -0.921875q0.796875 -0.34375 1.703125 -0.34375q1.046875 0 1.875 0.421875q0.828125 0.40625 1.359375 1.15625l-0.84375 0.828125l-0.125 0.125l-0.09375 -0.09375q0 -0.15625 -0.078125 -0.28125q-0.0625 -0.125 -0.28125 -0.359375q-0.40625 -0.359375 -0.875 -0.515625q-0.46875 -0.15625 -1.078125 -0.15625q-0.546875 0 -1.03125 0.234375q-0.484375 0.21875 -0.875 0.640625q-0.375 0.421875 -0.609375 1.015625q-0.21875 0.59375 -0.21875 1.328125q0 0.71875 0.21875 1.328125q0.234375 0.609375 0.625 1.0625q0.390625 0.4375 0.9375 0.703125q0.546875 0.25 1.1875 0.25q0.4375 0 0.828125 -0.125q0.390625 -0.125 0.734375 -0.359375q0.359375 -0.234375 0.65625 -0.5625l0.78125 0.90625q-0.625 0.671875 -1.40625 1.015625q-0.765625 0.328125 -1.671875 0.328125l0 0zm8.375 -0.015625q-0.640625 0 -1.265625 -0.28125q-0.625 -0.28125 -1.140625 -0.84375q-0.515625 -0.5625 -0.8125 -1.40625q-0.296875 -0.859375 -0.296875 -2.0q0 -1.171875 0.3125 -2.0q0.3125 -0.84375 0.828125 -1.375q0.53125 -0.53125 1.15625 -0.78125q0.640625 -0.25 1.296875 -0.25q0.59375 0 1.0625 0.1875q0.484375 0.1875 0.84375 0.515625q0.375 0.328125 0.578125 0.765625l0 -5.125l1.234375 0l0.1875 0l0 0.125q-0.109375 0.125 -0.140625 0.25q-0.03125 0.125 -0.03125 0.453125l0.015625 10.25q0 0.34375 0.03125 0.671875q0.03125 0.328125 0.15625 0.65625l-1.328125 0q-0.09375 -0.21875 -0.125 -0.4375q-0.03125 -0.234375 -0.046875 -0.4375q-0.015625 -0.21875 -0.015625 -0.453125q-0.25 0.453125 -0.625 0.796875q-0.375 0.34375 -0.84375 0.53125q-0.46875 0.1875 -1.03125 0.1875l0 0zm0.21875 -1.171875q0.609375 0 1.03125 -0.25q0.4375 -0.265625 0.6875 -0.71875q0.265625 -0.453125 0.390625 -1.0625q0.125 -0.609375 0.125 -1.296875q0 -0.953125 -0.25 -1.703125q-0.234375 -0.75 -0.765625 -1.1875q-0.515625 -0.453125 -1.34375 -0.453125q-0.546875 0 -1.0 0.21875q-0.4375 0.21875 -0.734375 0.625q-0.28125 0.40625 -0.4375 0.984375q-0.140625 0.5625 -0.140625 1.28125q0 1.0625 0.28125 1.859375q0.28125 0.796875 0.8125 1.25q0.546875 0.453125 1.34375 0.453125l0 0zm9.71875 1.1875q-0.53125 0 -1.0 -0.15625q-0.46875 -0.15625 -0.84375 -0.453125q-0.375 -0.296875 -0.6875 -0.71875l-0.453125 1.125l-0.859375 0l0 -12.40625l1.34375 0l0.1875 0l0 0.125q-0.125 0.125 -0.15625 0.25q-0.015625 0.125 -0.015625 0.453125l0 4.359375q0.203125 -0.34375 0.484375 -0.609375q0.28125 -0.28125 0.609375 -0.484375q0.34375 -0.21875 0.71875 -0.3125q0.375 -0.109375 0.71875 -0.109375q0.78125 0 1.421875 0.28125q0.65625 0.265625 1.109375 0.8125q0.46875 0.546875 0.71875 1.375q0.265625 0.8125 0.265625 1.921875q0 1.140625 -0.3125 2.0q-0.296875 0.84375 -0.8125 1.421875q-0.5 0.5625 -1.140625 0.84375q-0.625 0.28125 -1.296875 0.28125l0 0zm-0.171875 -1.1875q0.453125 0 0.859375 -0.171875q0.421875 -0.171875 0.75 -0.546875q0.34375 -0.390625 0.53125 -1.015625q0.203125 -0.640625 0.203125 -1.546875q0 -0.84375 -0.171875 -1.46875q-0.15625 -0.625 -0.46875 -1.03125q-0.3125 -0.421875 -0.75 -0.609375q-0.421875 -0.203125 -0.921875 -0.203125q-0.6875 0 -1.21875 0.421875q-0.53125 0.421875 -0.828125 1.1875q-0.296875 0.75 -0.296875 1.734375q0 0.734375 0.125 1.328125q0.140625 0.59375 0.40625 1.03125q0.265625 0.421875 0.703125 0.65625q0.4375 0.234375 1.078125 0.234375l0 0z" fill-rule="nonzero"/></g></svg>